<svg version="1.1" id="Layer_1" xmlns="http://www.w3.org/2000/svg" xmlns:xlink="http://www.w3.org/1999/xlink" x="0px" y="0px"
	 width="100%" viewBox="0 0 2048 632" enable-background="new 0 0 2048 632" xml:space="preserve">
<path  stroke="none" 
	d="
M1479.000000,633.000000 
	C986.000000,633.000000 493.500000,633.000000 1.000000,633.000000 
	C1.000000,422.333344 1.000000,211.666672 1.000000,1.000000 
	C683.666687,1.000000 1366.333374,1.000000 2049.000000,1.000000 
	C2049.000000,211.666672 2049.000000,422.333344 2049.000000,633.000000 
	C1859.166626,633.000000 1669.333374,633.000000 1479.000000,633.000000 
M534.738708,234.663330 
	C534.853333,234.799561 534.968018,234.935791 535.008057,235.864090 
	C534.005310,239.256363 533.145142,242.698715 531.975098,246.032227 
	C527.019104,260.151428 522.034058,274.261414 516.895569,288.314728 
	C516.019104,290.711823 514.098633,292.711426 513.080444,295.075562 
	C510.351532,301.412201 508.394867,308.137695 505.162079,314.191071 
	C493.055267,336.860809 480.115265,359.170471 474.305878,384.535248 
	C472.059174,394.344727 470.231720,404.405731 473.855377,414.431793 
	C475.101227,417.878937 481.558960,421.875641 484.948761,420.934875 
	C491.759308,419.044800 498.571930,417.131226 505.281921,414.918701 
	C511.659149,412.815948 514.003540,405.826843 511.147461,399.500977 
	C509.232025,395.258636 504.454620,392.196106 506.040680,386.401642 
	C506.841461,383.476074 506.147430,380.122192 507.039886,377.244354 
	C509.992157,367.724304 513.229431,358.285339 516.657776,348.925293 
	C517.511292,346.594940 519.696289,344.786163 520.898071,342.539124 
	C521.913940,340.639709 522.411621,338.459320 523.100586,336.390594 
	C523.394897,335.506866 523.415955,334.490204 523.862976,333.705994 
	C526.581055,328.937622 529.336914,324.188873 532.188110,319.499268 
	C533.229065,317.787170 534.565613,316.254852 535.846619,314.534058 
	C542.635681,323.654388 540.762817,334.995331 546.709839,343.996094 
	C550.642761,349.948578 551.794556,357.729950 554.279602,364.660919 
	C554.533630,365.369293 555.450867,365.814789 555.962402,366.459961 
	C558.990051,370.278687 561.997864,374.113220 564.994507,377.956329 
	C567.791626,381.543579 569.963989,385.962036 573.482971,388.567017 
	C579.823730,393.260925 586.705261,397.430817 593.853638,400.762268 
	C599.638062,403.458069 606.076538,405.347412 612.069031,400.088959 
	C614.438843,398.009430 617.315002,396.392426 620.174744,395.006805 
	C629.403137,390.535614 637.333435,383.753967 642.313843,375.465668 
	C648.278381,365.539703 651.802490,354.001984 655.430786,342.852234 
	C660.546143,327.132538 663.356750,310.930115 663.092407,294.264343 
	C663.031189,290.407257 664.081482,286.524628 664.698975,282.666290 
	C666.107666,273.864502 667.848755,265.104553 668.910217,256.262268 
	C669.719116,249.523895 671.365662,243.110245 677.272095,239.500092 
	C681.745728,236.765686 683.029785,232.634293 685.150085,228.590820 
	C686.924561,225.206726 686.110107,222.594040 683.317749,220.948761 
	C677.793335,217.693726 673.826660,211.204941 665.813660,212.806778 
	C663.067017,213.355850 659.719482,212.944138 657.135864,211.833145 
	C651.930664,209.594727 649.892395,212.442383 649.117859,216.459290 
	C648.012146,222.193314 647.880615,228.109451 646.925537,233.880371 
	C646.359131,237.302292 644.501404,240.543350 644.157043,243.959763 
	C643.820923,247.294464 645.242798,250.808838 644.893005,254.139282 
	C643.839661,264.166199 642.311707,274.143677 640.943176,284.136932 
	C640.326477,288.640076 639.682556,293.140106 638.988892,297.631958 
	C638.372681,301.622711 637.637390,305.595032 637.018433,309.585388 
	C636.622314,312.139282 636.436523,314.727631 635.991333,317.271667 
	C634.903137,323.491150 634.292664,329.872742 632.425964,335.857239 
	C630.185303,343.040283 627.352112,350.151917 623.812683,356.780334 
	C621.007751,362.033173 616.785583,366.537476 613.089417,371.293823 
	C612.700989,371.793701 611.433838,372.146851 610.880066,371.895264 
	C607.249634,370.246124 602.470703,369.327942 600.349915,366.474274 
	C592.543579,355.970306 584.153625,345.481689 578.750061,333.716461 
	C572.017639,319.057922 566.838501,303.403595 567.982971,286.635437 
	C568.049866,285.655457 568.274170,284.231598 567.747437,283.738770 
	C564.051575,280.280823 566.520630,276.552124 567.055847,272.921478 
	C567.266602,271.491669 568.381897,269.607086 567.824341,268.747131 
	C564.060852,262.942444 566.330994,256.845978 566.587219,250.877182 
	C566.947571,242.483093 567.568359,234.100006 567.905212,225.705292 
	C567.939697,224.844864 566.968689,223.386490 566.174561,223.140472 
	C560.837830,221.487106 555.082947,218.225052 550.128906,219.129333 
	C545.205444,220.028030 541.061768,225.198181 537.004211,228.180542 
	C537.004211,228.429855 537.051575,227.597168 536.996643,226.771301 
	C536.597534,220.772141 535.826538,220.033020 529.972656,220.015411 
	C525.319519,220.001419 520.647522,220.258316 516.018982,219.917633 
	C511.974945,219.619949 507.990051,218.152679 503.961395,218.070892 
	C481.598114,217.616898 459.294098,218.102219 437.141357,221.925827 
	C420.532562,224.792572 405.649750,231.004089 393.620728,240.754440 
	C392.407990,241.737442 390.304871,241.897537 388.600311,241.948318 
	C382.645691,242.125687 378.348022,245.062897 376.677917,250.853851 
	C375.246246,255.818115 373.915680,260.846405 373.054688,265.933441 
	C370.985992,278.155975 368.459381,290.057617 359.322205,299.428894 
	C356.538452,302.283966 356.040894,306.151794 355.801849,310.276245 
	C355.518005,315.173737 353.973663,320.052338 352.550659,324.812073 
	C351.459930,328.460205 349.197113,331.794037 348.356506,335.473480 
	C346.414825,343.972412 341.792450,351.929993 342.964996,361.089783 
	C343.041077,361.684113 342.888550,362.632050 342.489166,362.912506 
	C338.690002,365.580261 339.910797,369.547791 340.103180,372.991943 
	C340.393188,378.185486 340.665436,383.550690 342.172241,388.466858 
	C344.630371,396.486755 347.384460,404.871460 356.956573,407.370575 
	C359.832916,408.121490 361.982208,409.296204 364.179443,411.300140 
	C365.594147,412.590393 368.369934,412.638824 370.563934,412.769318 
	C374.549164,413.006378 378.555450,412.899353 382.553009,412.914032 
	C383.541473,412.917664 384.753082,413.196320 385.485535,412.741791 
	C396.335358,406.008240 409.319977,403.655487 419.722260,396.033936 
	C426.906677,390.770020 435.043549,386.389374 441.021851,379.994049 
	C449.892517,370.504700 457.224243,359.577515 465.222473,349.271210 
	C466.977997,347.009125 466.300110,335.602081 464.165009,333.754242 
	C463.618958,333.281647 462.681641,333.104248 461.913208,333.074799 
	C459.595947,332.985931 457.267578,332.940430 454.955475,333.077911 
	C453.961029,333.137085 452.619965,333.387085 452.076569,334.064148 
	C447.538940,339.718018 441.078064,343.079102 437.378052,350.281982 
	C433.965851,356.924500 428.104767,363.526886 420.264618,367.022034 
	C413.019409,370.251984 407.877319,377.917786 398.694305,377.206970 
	C398.006958,377.153778 397.274536,378.479584 396.468842,379.025269 
	C392.011017,382.044373 387.207458,383.930603 381.781830,382.323547 
	C376.298309,380.699341 373.440735,376.388641 373.155518,371.099640 
	C372.838684,365.223969 372.650238,358.985199 374.263397,353.445374 
	C376.666595,345.192139 377.055695,336.634552 379.570251,328.334900 
	C382.064636,320.101959 388.570099,314.208252 396.813080,314.937103 
	C399.232819,315.151123 401.851288,315.040771 404.150726,314.335754 
	C411.414734,312.108673 419.323364,314.422241 426.488159,310.240784 
	C430.160706,308.097473 435.333160,308.651489 439.738647,307.609711 
	C448.520477,305.532959 457.226196,303.136108 465.994690,301.000122 
	C468.961151,300.277466 472.951050,300.956207 474.845673,299.219208 
	C478.730225,295.657806 482.001801,291.167480 484.581116,286.533783 
	C486.315308,283.418365 484.657104,279.241608 481.308228,278.367615 
	C476.460541,277.102478 470.957825,276.231049 466.166840,277.241516 
	C448.140564,281.043274 430.018066,283.180939 411.606720,283.030518 
	C410.334045,283.020111 409.055542,283.429749 407.783752,283.665802 
	C404.671143,284.243439 401.560913,284.833771 396.707123,285.746796 
	C398.771912,278.547333 400.883881,272.970428 401.883606,267.200775 
	C402.907074,261.294312 406.575134,258.618225 411.600739,257.011261 
	C419.731781,254.411316 427.771606,251.232361 436.106293,249.637100 
	C446.562042,247.635834 456.095337,241.296753 467.313568,242.955109 
	C467.890320,243.040375 468.538879,242.573257 469.164825,242.403030 
	C473.357849,241.262772 477.504517,239.439301 481.758545,239.137222 
	C492.319244,238.387360 502.961304,237.691452 513.508789,238.217026 
	C521.030701,238.591843 527.711121,236.877670 534.738708,234.663330 
M813.327637,399.957825 
	C805.305359,405.080444 797.394165,410.388062 789.236633,415.285370 
	C774.378662,424.205170 759.119995,432.246460 742.387085,437.309021 
	C724.152222,442.825928 710.668457,438.452972 703.308289,421.696991 
	C699.699890,413.482117 696.134766,404.334229 698.869019,394.382050 
	C701.176270,385.984009 701.297546,376.863708 704.388611,368.833862 
	C708.191040,358.955688 713.795654,349.718231 719.121338,340.492523 
	C726.139954,328.334137 733.619141,316.440704 740.949341,304.463318 
	C746.263611,295.779816 751.439697,286.999969 757.080688,278.531738 
	C762.117737,270.970062 767.514160,263.625824 773.104797,256.460876 
	C779.238892,248.599594 785.799255,241.071808 792.130737,233.363297 
	C796.384644,228.184128 800.087097,222.442627 804.900696,217.860886 
	C810.547852,212.485687 817.082153,208.029129 823.325378,203.297775 
	C828.364746,199.478745 833.098511,193.928192 838.772644,192.609985 
	C845.905273,190.952942 851.859314,187.959167 857.541565,184.011765 
	C865.230042,178.670670 875.079895,176.012085 879.701599,166.765198 
	C881.729675,162.707458 887.607300,160.559952 885.963928,154.719620 
	C884.443237,149.315063 882.788879,143.932480 880.812622,138.683578 
	C880.362305,137.487610 878.393005,136.213974 877.041321,136.117462 
	C870.608704,135.658127 864.553528,136.460907 858.896484,140.397308 
	C851.749084,145.370865 843.803528,149.202988 836.693909,154.223648 
	C831.877441,157.624924 825.159180,159.368286 823.739136,166.530457 
	C823.621704,167.122284 822.567261,167.565475 821.900696,168.005753 
	C810.651978,175.435776 801.226501,184.668213 793.948792,196.064026 
	C793.388550,196.941315 792.269287,197.448257 791.458679,198.181335 
	C788.305481,201.032806 784.819214,203.608765 782.102905,206.831696 
	C776.015869,214.054108 770.340149,221.622192 764.432678,228.998077 
	C763.464050,230.207550 761.846985,230.963089 761.075500,232.254547 
	C755.964233,240.811203 751.177307,249.565460 745.931946,258.036896 
	C742.186829,264.085358 738.010193,269.880005 733.804321,275.625549 
	C730.338196,280.360626 726.217407,284.637146 722.961487,289.501587 
	C713.860046,303.099304 705.015686,316.870209 696.156128,330.628265 
	C692.660767,336.056274 688.957703,341.417969 686.131958,347.192871 
	C682.526184,354.561798 679.784119,362.349060 676.541199,369.900757 
	C672.145020,380.137939 669.683777,390.806366 668.996826,401.908966 
	C668.136047,415.820709 669.837158,429.524780 675.358337,442.214111 
	C678.776184,450.069519 681.819702,458.004425 691.633545,462.469055 
	C704.892822,468.501160 718.407715,466.289856 731.710022,467.547729 
	C738.284790,468.169434 745.527344,464.874054 752.049194,462.293365 
	C768.675720,455.714203 783.460815,445.746460 797.933533,435.445404 
	C811.304260,425.928741 823.992493,415.446716 837.443420,406.051575 
	C848.722656,398.173370 854.254944,385.238464 864.687622,376.741486 
	C864.983154,376.500763 864.810425,375.757111 865.019409,375.327362 
	C868.674866,367.811768 872.298950,360.279510 876.097290,352.836334 
	C876.621338,351.809448 878.308716,351.418091 878.976074,350.412872 
	C880.056030,348.786163 881.427002,346.907654 881.461731,345.112030 
	C881.586060,338.682373 881.130676,332.243195 881.100342,325.806641 
	C881.096741,325.040527 882.223511,323.827240 883.059021,323.566345 
	C893.055969,320.444702 902.532410,315.194916 913.510803,315.970337 
	C914.619873,316.048645 916.131042,316.130524 916.824707,315.507904 
	C923.440125,309.570099 931.511353,309.294220 939.753906,308.875000 
	C944.632446,308.626892 949.505188,307.762543 952.895752,302.986877 
	C953.992615,301.441895 957.562256,301.223755 959.972168,301.300140 
	C960.697632,301.323120 961.963379,304.422974 961.869019,306.048767 
	C961.665161,309.560913 960.924011,313.077576 960.057251,316.505035 
	C959.271362,319.612732 957.732117,322.539673 957.045837,325.660828 
	C955.521057,332.595123 954.379578,339.612854 952.950195,346.569519 
	C952.599609,348.275635 950.852966,350.153259 951.264709,351.482361 
	C953.714722,359.392548 953.096375,367.245422 952.104797,375.269684 
	C951.396057,381.004883 961.056274,396.262268 966.768494,398.023926 
	C970.177124,399.075195 976.070374,399.648621 977.593689,397.782074 
	C981.789490,392.640808 984.479309,386.195648 987.282776,380.046478 
	C987.968018,378.543518 987.039612,374.575714 986.454041,374.490723 
	C980.773682,373.666443 981.388184,368.643524 981.229126,365.570496 
	C980.652039,354.424072 980.812561,343.224518 981.111938,332.056183 
	C981.209839,328.404572 982.276306,324.686890 983.435425,321.176300 
	C985.392883,315.247955 988.852722,309.608093 989.680420,303.572601 
	C990.511902,297.509460 993.661926,295.928925 998.547852,294.978821 
	C1008.287354,293.084900 1018.040039,292.154510 1028.005493,292.821472 
	C1030.746826,293.004944 1034.386597,291.774902 1036.298950,289.871857 
	C1040.460083,285.731018 1043.727173,280.700775 1047.453003,276.109955 
	C1049.634766,273.421722 1048.939941,271.001923 1046.929810,268.773285 
	C1044.394653,265.962372 1041.776123,263.210022 1038.992065,260.651703 
	C1038.304688,260.020142 1036.798340,259.958679 1035.735718,260.109192 
	C1029.482788,260.994995 1023.260803,262.100037 1017.006226,262.972168 
	C1012.819824,263.555908 1008.596619,263.876038 1004.389832,264.314148 
	C1004.021729,263.913116 1003.653625,263.512085 1003.285522,263.111053 
	C1004.327209,261.154297 1004.935181,257.997925 1006.482056,257.438812 
	C1015.395508,254.216812 1024.504517,251.518204 1033.611816,248.863785 
	C1035.628052,248.276154 1037.968872,248.876709 1040.048706,248.420959 
	C1047.763550,246.730362 1055.354248,243.824097 1063.134644,243.222198 
	C1077.291992,242.126953 1091.419434,239.891663 1105.724365,240.939194 
	C1112.248413,241.416916 1118.580322,242.008484 1123.725952,246.624863 
	C1119.707520,255.211624 1112.859253,263.116608 1105.359741,268.240082 
	C1101.235107,271.057983 1097.012817,273.756439 1093.073608,276.816406 
	C1088.485840,280.380310 1084.523438,284.857361 1079.654663,287.932617 
	C1060.746338,299.876068 1041.181152,310.837097 1024.517334,326.013580 
	C1022.270447,328.059875 1019.643066,330.048309 1018.290833,332.637451 
	C1015.917969,337.181244 1014.443481,342.188660 1012.505371,346.966492 
	C1009.930725,353.314026 1013.148254,364.397491 1019.121277,367.965790 
	C1034.856445,377.365875 1051.586670,379.567383 1069.265015,374.387238 
	C1071.147827,373.835541 1072.987305,372.240631 1075.432251,374.516754 
	C1076.784302,375.775452 1080.041992,375.698059 1082.226074,375.227325 
	C1090.871460,373.363983 1099.378540,370.834930 1108.049316,369.122040 
	C1111.864868,368.368225 1116.026733,369.466003 1119.894531,368.855560 
	C1125.775879,367.927368 1131.475586,365.806580 1137.362793,364.966614 
	C1152.863892,362.754883 1168.428589,360.991760 1183.959595,358.985748 
	C1190.894165,358.090057 1197.859985,357.307404 1204.718994,355.990265 
	C1212.682861,354.460846 1220.451172,351.497498 1228.392700,353.418304 
	C1230.719116,362.942078 1228.896606,373.177582 1237.198975,380.991547 
	C1242.622070,386.095581 1246.354614,392.560059 1255.075073,393.235565 
	C1261.877075,393.762512 1267.742188,391.682587 1271.173096,385.395966 
	C1274.796509,378.756653 1273.634033,374.857086 1266.949097,371.434143 
	C1265.806396,370.848999 1264.410767,370.678741 1263.391113,369.952698 
	C1262.125366,369.051483 1260.789185,367.945129 1260.106812,366.608978 
	C1259.325073,365.078186 1259.393066,363.139069 1258.802368,361.480408 
	C1256.696167,355.565735 1256.135132,349.825226 1259.929688,344.291443 
	C1260.749023,343.096497 1261.293823,341.694427 1261.848877,340.340088 
	C1266.187744,329.755127 1271.012573,319.332703 1274.673828,308.517029 
	C1278.413452,297.470276 1287.995728,290.199829 1291.904175,279.108734 
	C1294.399292,272.027954 1300.337891,266.157318 1304.750244,259.756378 
	C1308.153809,254.818634 1311.708618,249.980011 1314.966187,244.948380 
	C1317.776245,240.608017 1320.192871,236.015121 1322.910645,231.612411 
	C1325.486328,227.439987 1328.291138,223.408432 1330.835693,219.218048 
	C1331.285034,218.478180 1331.327026,217.060760 1330.918579,216.298523 
	C1327.707886,210.307846 1330.232544,205.537811 1334.075806,201.200241 
	C1332.760010,199.044312 1331.588989,197.125565 1330.291626,195.000015 
	C1325.477051,195.000015 1320.459229,194.721664 1315.500366,195.141098 
	C1313.595581,195.302216 1311.238403,196.617615 1310.095337,198.156082 
	C1305.083618,204.901505 1300.357666,211.865387 1295.685181,218.855042 
	C1289.286499,228.426788 1282.698242,237.895920 1276.813477,247.779572 
	C1271.693481,256.378937 1265.046997,262.700653 1255.580933,266.062256 
	C1253.980225,266.630646 1252.547607,267.747131 1251.134399,268.747498 
	C1249.730469,269.741333 1248.609009,271.370544 1247.079468,271.900024 
	C1244.161011,272.910248 1240.466675,272.526367 1238.128784,274.181854 
	C1233.859253,277.205170 1229.763184,279.568848 1224.335327,279.080139 
	C1223.022339,278.961945 1221.548584,279.684906 1220.272339,280.284241 
	C1216.928101,281.854889 1212.044189,280.556885 1211.153809,277.023865 
	C1210.077271,272.752106 1208.949585,267.961121 1209.840332,263.824768 
	C1212.587036,251.070328 1216.309326,238.527023 1219.571167,225.880676 
	C1219.874878,224.703354 1220.040283,223.146133 1219.521240,222.158875 
	C1216.910889,217.193649 1205.280640,213.139526 1199.661621,214.730789 
	C1190.812744,217.236649 1186.270630,223.733414 1182.951050,231.671875 
	C1179.447388,240.050323 1181.105957,249.738434 1176.060669,257.747833 
	C1174.727417,259.864380 1173.909912,262.506042 1173.571411,265.003601 
	C1173.017700,269.089233 1172.546509,273.306549 1172.967285,277.372406 
	C1173.462402,282.155273 1174.773438,286.883484 1176.061035,291.544098 
	C1176.937622,294.716888 1178.591431,300.441132 1179.536499,300.367798 
	C1184.637329,299.972076 1186.741455,303.970306 1190.094971,306.011505 
	C1200.094604,312.098022 1211.194458,311.020386 1222.135010,310.871521 
	C1223.024780,310.859436 1223.899048,310.095734 1224.789795,309.702271 
	C1229.147949,307.777161 1233.458130,305.729370 1237.889160,303.989197 
	C1240.389526,303.007141 1243.090576,302.535553 1247.039917,301.474274 
	C1241.989502,314.983978 1237.538940,326.888702 1233.206177,338.478638 
	C1229.359009,337.560486 1226.006592,335.956543 1222.744995,336.123779 
	C1209.964600,336.779114 1197.208374,337.941956 1184.452148,339.022278 
	C1178.258667,339.546844 1171.986694,341.303894 1165.927490,340.706238 
	C1158.332275,339.957092 1150.979858,346.015991 1143.424683,341.143921 
	C1143.098877,340.933716 1142.280762,341.597473 1141.665649,341.708038 
	C1135.466187,342.822937 1129.290649,344.138580 1123.049805,344.939789 
	C1115.737061,345.878632 1108.365356,346.356262 1101.020264,347.044617 
	C1086.994629,348.359070 1072.979004,349.796112 1058.938599,350.926666 
	C1054.973022,351.245972 1050.273071,352.052673 1049.285156,345.926971 
	C1049.164551,345.179657 1047.712646,344.647003 1046.628662,343.826172 
	C1048.878174,340.382416 1050.282104,336.247437 1053.167236,334.139801 
	C1071.490112,320.754608 1090.192139,307.890411 1108.656006,294.695862 
	C1115.936035,289.493347 1123.708862,284.642731 1129.867554,278.285492 
	C1139.818481,268.013611 1147.955688,256.231812 1154.447021,243.304550 
	C1158.102539,236.024582 1158.278442,229.682816 1152.930176,223.490448 
	C1150.949951,221.197601 1149.035034,218.278870 1146.444458,217.208160 
	C1141.892212,215.326782 1136.899414,214.076385 1131.989380,213.590134 
	C1122.805664,212.680695 1113.493774,211.642395 1104.336182,212.230865 
	C1090.849854,213.097534 1077.410156,215.065887 1064.029907,217.089584 
	C1053.809570,218.635376 1043.715698,221.011719 1033.557495,222.977722 
	C1031.336548,223.407593 1029.063599,223.573334 1026.847778,224.024139 
	C1024.371826,224.527847 1021.904541,225.120667 1019.485046,225.846359 
	C1014.179138,227.437805 1008.770874,229.664154 1003.390625,226.898804 
	C998.617676,224.445572 994.806152,226.085129 990.972961,228.572586 
	C988.928894,229.899063 986.940186,231.366760 985.142273,233.007278 
	C976.969543,240.464600 965.523560,239.981110 956.347229,244.992996 
	C951.702026,247.530090 946.842285,249.690430 942.292725,252.381500 
	C938.953674,254.356567 935.231689,263.575836 937.186096,265.809692 
	C940.260010,269.323181 944.205200,272.149475 948.087158,274.822784 
	C948.946838,275.414795 951.179077,274.369965 952.611694,273.713226 
	C959.590332,270.514191 966.512024,267.191101 973.432007,263.922211 
	C976.284302,268.714783 975.077148,272.912354 970.260437,274.315033 
	C964.219177,276.074310 958.103943,277.620483 951.956604,278.966705 
	C930.944275,283.568146 909.838379,287.761749 888.897095,292.661957 
	C874.801392,295.960327 860.942993,300.262695 846.942810,303.981628 
	C829.615601,308.584320 812.272156,313.129120 794.895996,317.542450 
	C783.905212,320.333923 773.142517,324.209778 761.526733,324.073456 
	C755.280823,324.000183 749.027710,324.697235 742.775269,324.992584 
	C724.297119,325.865540 720.943909,347.365204 728.279419,359.444183 
	C728.768433,360.249512 730.709717,360.556702 731.930786,360.469421 
	C738.357117,360.009857 744.643555,355.249878 750.504395,359.726654 
	C753.265320,358.587616 755.418030,357.473816 757.700378,356.796875 
	C767.707214,353.828857 777.717041,350.859406 787.792542,348.137573 
	C796.957397,345.661713 806.229553,343.585938 815.415710,341.185516 
	C825.827454,338.464783 836.196655,335.581299 846.582214,332.760590 
	C847.354370,332.550842 848.343079,331.838013 848.835571,332.100647 
	C853.565430,334.623108 856.086487,331.267212 858.977112,328.587219 
	C860.025269,327.615479 861.537720,326.276733 862.666931,326.423523 
	C865.997314,326.856445 869.241943,327.948761 872.872742,328.872742 
	C871.821899,329.832428 870.998291,331.060089 869.859680,331.539246 
	C865.690491,333.293701 862.789978,335.459290 864.879028,340.673920 
	C865.179504,341.423950 864.333496,342.897949 863.650269,343.737701 
	C853.019470,356.803894 842.571777,370.031952 831.544739,382.757233 
	C826.255188,388.861389 819.843384,393.993011 813.327637,399.957825 
M99.000969,370.645203 
	C100.823013,360.104309 102.032471,349.410278 104.619392,339.060547 
	C107.988029,325.583374 112.482552,312.389069 116.403557,299.046844 
	C116.949234,297.190033 116.280670,294.489990 117.383049,293.367859 
	C121.995552,288.672760 122.012825,282.500244 123.680267,276.809509 
	C126.938103,265.691010 130.738586,254.729752 133.907578,243.587662 
	C136.036469,236.102524 137.016190,228.566757 145.540466,224.583008 
	C149.858902,222.564850 153.360382,218.901764 158.636017,218.940201 
	C159.655899,218.947632 160.941803,218.463028 161.660446,217.754486 
	C165.396408,214.071075 169.564423,212.898697 174.558563,214.843002 
	C175.212982,215.097794 176.212555,214.847137 176.918045,214.531021 
	C184.694336,211.046783 192.442795,207.500519 200.202957,203.980225 
	C200.927307,203.651627 202.252075,203.014221 202.336792,203.144608 
	C205.039612,207.305618 206.355942,203.371216 208.282425,202.293808 
	C210.066269,201.296204 212.046692,200.508087 214.037735,200.052368 
	C218.293961,199.078171 222.644806,198.516754 226.899933,197.538589 
	C236.626694,195.302612 246.120575,191.887222 256.291809,191.989288 
	C260.452332,192.031036 265.416199,193.424072 268.595062,191.653610 
	C273.962402,188.664276 277.539185,191.832169 281.521637,193.354126 
	C285.971985,195.054871 286.819641,198.600723 284.993317,203.092377 
	C281.283081,212.217239 273.927246,217.919724 266.226959,223.320938 
	C265.029602,224.160812 263.785248,224.940826 262.639496,225.845856 
	C257.871887,229.611862 253.410828,233.842941 248.336349,237.130066 
	C227.295517,250.759720 206.139252,264.215240 184.862152,277.472748 
	C180.443558,280.225922 175.300629,281.801666 170.544510,284.032928 
	C166.931244,285.728119 163.065903,287.154877 159.923721,289.514618 
	C156.312164,292.226868 153.261658,295.307404 148.127853,294.101685 
	C146.737091,293.775055 144.909744,294.382019 143.540817,295.072235 
	C140.256165,296.728241 137.277527,299.057190 133.902115,300.454407 
	C124.528404,304.334534 121.601151,308.414246 122.000526,318.024078 
	C122.223434,323.387726 124.993515,326.530853 130.230469,328.118378 
	C132.989548,328.954712 136.054962,329.925018 138.078033,331.806793 
	C142.301208,335.735046 147.353119,333.776184 151.935242,334.377289 
	C155.656616,334.865570 159.611679,333.479187 163.473694,333.011658 
	C168.827438,332.363647 174.206268,331.907227 179.546768,331.169220 
	C186.440384,330.216583 193.316223,328.112244 200.183060,328.180511 
	C221.003296,328.387573 241.900391,326.622437 262.640656,329.892822 
	C263.063812,329.959534 263.630798,329.743805 263.992249,329.474213 
	C267.495300,326.861755 270.730194,328.565094 274.022736,329.995117 
	C280.807007,332.941742 287.410187,336.614685 294.486511,338.461060 
	C298.582092,339.529694 301.175598,341.588470 303.648132,344.328949 
	C304.382751,345.143158 304.788147,347.534912 304.274353,347.986572 
	C301.007599,350.858215 297.727173,353.939941 293.914764,355.918732 
	C285.674713,360.195587 277.092987,363.810638 268.690643,367.780182 
	C265.947693,369.076080 263.430542,370.885406 260.632416,372.022675 
	C250.551544,376.119843 240.461700,380.212860 230.247437,383.958954 
	C220.522568,387.525604 210.673874,390.767975 200.813995,393.949524 
	C189.624512,397.560089 178.422424,401.158020 167.110870,404.354706 
	C159.201080,406.590027 151.173965,409.145386 143.063431,409.757172 
	C131.800949,410.606689 126.356110,421.755432 129.694382,431.242310 
	C130.666733,434.005615 131.634674,436.870209 135.103790,436.924286 
	C141.929993,437.030792 148.764160,436.686798 155.588440,436.834137 
	C159.240845,436.912933 162.259949,436.581482 163.201736,432.338501 
	C163.262726,432.063721 163.606430,431.757568 163.890533,431.640564 
	C168.494431,429.744232 172.993195,427.476349 177.747986,426.087677 
	C186.705902,423.471436 195.869446,421.560333 204.831879,418.957916 
	C208.761841,417.816742 212.306808,415.399811 216.201767,414.078674 
	C228.210419,410.005493 240.356171,406.334503 252.347305,402.212402 
	C262.071106,398.869690 271.801056,395.703125 280.776642,390.256317 
	C289.786835,384.788574 300.229492,381.587616 308.943298,375.749725 
	C319.052063,368.977325 330.464508,363.764709 336.555511,351.492828 
	C340.399628,343.747894 341.387634,337.290894 338.247253,329.550049 
	C336.898193,326.224762 335.369598,323.637665 331.884918,322.395996 
	C326.203369,320.371490 322.389343,315.153076 315.874268,314.064636 
	C310.021820,313.086823 304.635712,309.576569 298.809784,308.119629 
	C290.505219,306.042908 281.974854,304.881653 273.562958,303.218048 
	C264.260681,301.378387 255.037964,299.323059 245.402985,299.916290 
	C238.264618,300.355835 231.074463,299.872833 223.916199,300.090729 
	C214.475494,300.378174 205.043427,300.949432 195.607635,301.398651 
	C195.539658,300.958405 195.471680,300.518127 195.403702,300.077881 
	C204.351074,294.065369 213.708130,288.573486 222.156219,281.926422 
	C237.365891,269.959229 255.286407,262.279449 270.493256,250.225861 
	C276.928925,245.124710 284.688904,241.551544 290.807068,235.732117 
	C297.905914,228.979889 307.206879,224.663589 312.579407,215.978653 
	C314.291870,213.210297 316.510345,210.724991 317.992493,207.849930 
	C321.847961,200.371124 319.643982,192.260254 319.946289,184.422501 
	C320.155762,178.993408 321.394928,172.912827 314.069458,170.517258 
	C313.373169,170.289536 312.690552,169.460800 312.365143,168.745651 
	C309.387909,162.202591 301.670593,161.804840 297.241180,157.086380 
	C296.335022,156.121124 294.136749,155.921310 292.601715,156.069504 
	C284.975800,156.805786 277.364288,157.712341 269.764130,158.687164 
	C264.607666,159.348526 259.449860,160.070755 254.343842,161.036469 
	C247.223923,162.383057 240.073547,163.691925 233.086426,165.574417 
	C228.326004,166.856964 223.899673,169.339233 219.178009,170.819458 
	C215.829330,171.869293 212.203903,172.002625 208.766800,172.818054 
	C206.973557,173.243500 205.384796,174.528458 203.591766,174.957672 
	C198.091507,176.274307 192.412064,176.962097 187.031631,178.632965 
	C177.723190,181.523651 168.647034,185.157867 159.356262,188.111603 
	C153.815628,189.873093 148.327835,191.012527 142.392365,188.040543 
	C133.732178,183.704239 126.939308,185.389008 120.848198,192.727386 
	C115.188454,199.546066 110.290123,206.817780 110.940353,216.386597 
	C111.022430,217.594482 110.286873,218.846146 109.998413,220.093323 
	C109.310539,223.067459 108.679955,226.054825 107.994171,229.029465 
	C107.533806,231.026337 107.100792,233.035233 106.512596,234.995865 
	C104.710793,241.001938 102.814995,246.979767 101.002754,252.982773 
	C99.052917,259.441589 97.449799,266.021912 95.172668,272.361450 
	C90.990143,284.005524 85.865150,295.336670 82.170319,307.123413 
	C78.220863,319.722382 74.936188,332.590790 72.358757,345.540100 
	C70.169144,356.541016 68.843529,367.792633 68.201393,378.994385 
	C67.793228,386.114655 68.821548,393.441956 70.138046,400.502594 
	C71.557449,408.115051 71.451019,417.161682 81.862518,419.423126 
	C82.273491,419.512421 82.606186,420.069061 82.927284,420.448578 
	C86.478287,424.645111 91.047287,423.431488 95.183716,422.231995 
	C101.046448,420.531891 106.668343,418.019226 112.451599,416.023102 
	C122.478401,412.562286 122.497559,412.616730 122.998405,401.892975 
	C123.013947,401.560394 122.970512,401.222839 123.008652,400.893860 
	C123.860069,393.550140 122.939079,392.208801 115.330391,392.124359 
	C111.779076,392.084930 105.925621,387.444702 105.722656,395.990570 
	C100.577019,396.144836 99.148087,393.022949 99.026222,389.085999 
	C98.846115,383.267853 98.992889,377.439575 99.000969,370.645203 
M1910.319336,222.013062 
	C1897.240234,217.187027 1891.461914,217.831833 1885.187866,226.655487 
	C1882.113159,230.979614 1880.363403,236.539841 1879.093140,241.801163 
	C1874.002197,262.886780 1865.542358,282.701324 1856.797852,302.407532 
	C1854.119263,308.443512 1850.439941,314.026947 1847.527588,319.968964 
	C1837.440552,340.550323 1825.648926,360.466644 1820.549927,383.108704 
	C1818.236694,393.381104 1816.033203,403.931030 1819.889282,414.479675 
	C1821.236816,418.166199 1827.309692,421.962311 1830.915283,420.904907 
	C1837.567383,418.953827 1844.250366,417.035004 1850.737183,414.612061 
	C1858.161255,411.838989 1861.174438,401.445374 1855.454224,396.285339 
	C1849.145874,390.594879 1850.527100,384.076050 1852.189575,378.011658 
	C1854.902954,368.112823 1859.305786,358.690033 1862.438843,348.888397 
	C1864.253906,343.209595 1869.896362,339.847900 1870.486450,333.298279 
	C1870.768921,330.161896 1874.059937,327.298187 1875.982788,324.307373 
	C1877.967407,321.220123 1879.945190,318.128448 1881.926025,315.038666 
	C1883.282593,318.548431 1884.882690,321.987152 1885.931885,325.586578 
	C1887.140503,329.733307 1887.321899,334.237701 1888.906616,338.204376 
	C1892.276123,346.638184 1896.259644,354.827118 1900.008301,363.108734 
	C1900.462524,364.112427 1900.906128,365.152893 1901.550415,366.032990 
	C1904.328003,369.827484 1907.041260,373.682495 1910.039185,377.298950 
	C1913.433594,381.393860 1916.630493,385.876312 1920.776855,389.068512 
	C1926.257446,393.287933 1932.647949,396.306274 1938.516479,400.046265 
	C1944.846680,404.080688 1951.314941,404.104980 1957.526489,400.004364 
	C1960.325317,398.156769 1963.268066,396.497528 1966.259766,394.977478 
	C1975.345703,390.360718 1983.384277,383.701172 1988.351929,375.404663 
	C1994.303711,365.464478 1997.830566,353.928223 2001.456055,342.773865 
	C2006.568115,327.046478 2009.353027,310.835907 2009.098389,294.165283 
	C2009.034180,289.966278 2010.062500,285.739746 2010.701172,281.542999 
	C2012.095459,272.381744 2014.443115,263.257965 2014.719238,254.068329 
	C2014.938477,246.777420 2019.033813,241.659302 2023.590210,238.742676 
	C2028.300781,235.727249 2029.092285,231.376984 2031.598022,227.652664 
	C2032.285400,226.630920 2032.377319,224.070221 2031.659058,223.428589 
	C2027.546753,219.755127 2023.584351,214.938141 2018.663330,213.384415 
	C2011.991699,211.277893 2004.500610,211.766739 1996.394165,211.057724 
	C1994.254517,221.809692 1990.645508,232.469147 1990.543213,243.162186 
	C1990.478027,249.967438 1990.613281,256.822021 1989.995850,263.652252 
	C1989.567627,268.388916 1989.968140,273.420532 1988.463013,277.791718 
	C1985.739868,285.700684 1984.616577,293.627716 1984.976562,301.885864 
	C1985.033447,303.191254 1984.919800,304.541321 1984.640259,305.817108 
	C1983.826782,309.529327 1982.827515,313.200806 1982.013550,316.912903 
	C1980.599243,323.362549 1979.710815,329.967255 1977.768433,336.249329 
	C1976.119507,341.582397 1972.514648,346.357910 1971.178467,351.729218 
	C1969.313477,359.225830 1963.952271,364.265808 1960.021973,370.298492 
	C1959.345215,371.337311 1956.847534,372.246735 1955.802979,371.796478 
	C1952.289185,370.281647 1948.814087,368.442932 1945.754761,366.153137 
	C1937.974976,360.330170 1935.581787,350.822784 1930.602661,343.072998 
	C1927.924438,338.904175 1924.825928,334.815277 1923.141357,330.239532 
	C1920.087891,321.946381 1917.400024,313.431763 1915.583984,304.794220 
	C1913.744629,296.045898 1913.089600,287.043518 1912.028809,278.138977 
	C1911.556519,274.175201 1915.959839,269.816895 1911.047485,266.143585 
	C1910.732544,265.908051 1910.978394,264.863525 1911.032959,264.201111 
	C1912.015503,252.275436 1912.939819,240.344238 1914.050903,228.430466 
	C1914.314087,225.609512 1913.265015,223.825363 1910.319336,222.013062 
M1511.956177,315.551270 
	C1515.059692,314.158783 1518.163208,312.766266 1522.621826,310.765747 
	C1521.257080,316.794952 1520.284302,321.019073 1519.346924,325.251068 
	C1517.885498,331.849457 1515.976807,338.395874 1515.165283,345.074615 
	C1514.620361,349.559143 1516.996094,354.666229 1515.695190,358.737488 
	C1512.638062,368.305145 1520.125977,373.810669 1522.754639,381.133514 
	C1522.907837,381.560150 1523.814453,381.827332 1524.416992,381.963989 
	C1528.953003,382.993256 1533.486938,384.045410 1538.058228,384.892487 
	C1538.827881,385.035156 1539.845825,384.332977 1540.625244,383.829559 
	C1542.526367,382.601593 1544.644165,381.531433 1546.155640,379.912933 
	C1549.925781,375.876526 1553.589722,371.709686 1556.937744,367.321533 
	C1559.052002,364.550354 1557.734985,362.976807 1554.460815,361.909393 
	C1545.967529,359.140442 1541.458374,353.569031 1543.221680,345.532135 
	C1546.049438,332.643860 1550.259521,320.055725 1554.030640,307.383972 
	C1554.320312,306.410919 1555.629272,305.425537 1556.681519,305.043091 
	C1569.986328,300.207916 1583.201660,295.063507 1596.715698,290.891968 
	C1604.363403,288.531250 1612.518433,287.814087 1620.997070,286.255127 
	C1620.997070,288.510864 1621.069092,289.647278 1620.972778,290.769226 
	C1620.904541,291.564117 1620.676880,292.363983 1620.404785,293.119995 
	C1612.507446,315.060211 1608.594971,337.588470 1609.985474,360.976196 
	C1610.350708,367.117889 1610.098999,373.303711 1609.948608,379.464844 
	C1609.889404,381.884369 1609.090698,384.287384 1609.047485,386.705414 
	C1608.940674,392.690460 1615.083496,396.373413 1619.658813,392.497314 
	C1624.620483,388.294128 1631.469604,386.627472 1635.033691,380.578552 
	C1636.587402,377.941620 1640.647095,375.659271 1640.527588,373.375031 
	C1640.207031,367.251373 1638.914917,361.268860 1640.386719,355.042847 
	C1640.989136,352.494507 1639.825806,349.578888 1640.061401,346.882416 
	C1640.456421,342.361511 1641.409424,337.892517 1641.980103,333.382996 
	C1642.717529,327.554504 1643.023804,321.656830 1644.048828,315.883575 
	C1645.002563,310.512207 1647.396484,305.325775 1647.837524,299.949738 
	C1648.617554,290.438873 1650.849854,287.173157 1660.277588,284.999420 
	C1665.227539,283.858124 1672.437622,276.442322 1672.967896,271.947052 
	C1673.685425,265.863953 1665.962158,259.363556 1658.552368,260.382294 
	C1659.377441,252.251572 1660.034180,244.237122 1661.066895,236.271439 
	C1661.564575,232.432724 1662.771118,228.685913 1663.656738,224.897507 
	C1663.871826,222.245300 1663.178589,219.258286 1663.057373,216.248260 
	C1662.849854,211.090637 1662.911743,205.916595 1663.029175,200.753311 
	C1663.116699,196.903778 1662.262695,194.356049 1657.563110,194.918594 
	C1656.055908,195.098999 1654.431152,194.336746 1652.865723,193.980606 
	C1650.384155,193.416031 1647.862549,192.208755 1645.438354,192.384583 
	C1640.585815,192.736557 1640.511719,196.961929 1639.749878,200.593277 
	C1636.892456,214.213364 1634.094849,227.850479 1630.907837,241.394836 
	C1629.487305,247.432205 1627.298218,253.301331 1625.208862,259.157928 
	C1624.800659,260.302277 1623.383301,261.552704 1622.193359,261.875061 
	C1615.345947,263.729858 1608.491577,265.687012 1601.517456,266.916748 
	C1590.205200,268.911438 1578.798462,270.370483 1567.339355,272.069336 
	C1567.187866,271.166321 1566.931885,270.646179 1567.058594,270.247742 
	C1570.014771,260.949310 1573.600586,251.803894 1575.849854,242.340179 
	C1578.500244,231.189514 1580.367554,219.813187 1581.848267,208.440170 
	C1582.627686,202.453033 1579.682373,198.929138 1574.215576,198.169724 
	C1563.321167,196.656326 1559.779419,195.548447 1556.891602,208.377930 
	C1554.378906,219.540421 1552.283936,230.859222 1548.807861,241.726257 
	C1544.790894,254.283737 1539.603516,266.479553 1534.578003,278.689850 
	C1533.670410,280.894989 1531.403442,283.056610 1529.219604,284.113831 
	C1524.574097,286.362671 1519.697876,288.449554 1514.685059,289.551971 
	C1506.846924,291.275787 1500.205811,295.549469 1492.967407,298.520142 
	C1484.756958,301.889862 1477.714355,306.104279 1477.076050,316.456299 
	C1476.812500,320.729065 1478.689941,324.235748 1483.109253,323.873627 
	C1486.562012,323.590729 1489.953003,322.274963 1493.313965,321.232941 
	C1496.371582,320.284973 1499.311035,318.949982 1502.377930,318.039825 
	C1505.290283,317.175629 1508.300415,316.640900 1511.956177,315.551270 
M1517.948975,250.163879 
	C1517.225342,247.211792 1517.407349,243.423752 1515.603149,241.469101 
	C1510.772217,236.235382 1506.824097,229.649643 1498.742676,228.275589 
	C1495.617676,227.744263 1492.724121,225.974915 1489.642822,225.040909 
	C1480.446167,222.253265 1471.664307,216.421829 1461.395752,220.960739 
	C1461.134277,221.076233 1460.745728,220.866409 1460.418213,220.875137 
	C1453.285034,221.065201 1446.149536,221.204727 1439.020142,221.493729 
	C1436.390259,221.600372 1432.914185,221.129837 1431.346313,222.574554 
	C1428.741333,224.974899 1426.124268,224.791214 1423.198853,225.060242 
	C1419.665039,225.385239 1416.138916,226.008453 1412.670166,226.776077 
	C1408.266968,227.750412 1403.956665,229.153763 1399.543579,230.070328 
	C1397.028809,230.592636 1394.234375,230.032013 1391.836548,230.802002 
	C1386.227539,232.603210 1380.869629,235.197098 1375.244873,236.935745 
	C1369.739746,238.637482 1363.936523,239.379349 1358.438232,241.098877 
	C1353.737427,242.569031 1349.324707,244.936478 1344.706787,246.703781 
	C1340.818481,248.191910 1335.966309,248.394516 1333.035156,250.908493 
	C1325.719360,257.183136 1317.755371,263.534973 1314.774048,273.079895 
	C1313.592285,276.863312 1315.128540,282.114288 1316.980835,285.946136 
	C1317.812988,287.667297 1322.458862,287.544739 1325.806763,288.364746 
	C1325.672241,288.973633 1325.393677,290.504639 1324.993774,292.003235 
	C1321.169312,306.335327 1317.984009,320.882050 1313.296631,334.927124 
	C1308.760742,348.518677 1305.462891,362.153900 1306.123047,376.463684 
	C1306.396851,382.398193 1307.737549,388.341553 1309.155029,394.143585 
	C1310.012207,397.652863 1312.672241,400.376984 1316.653687,399.907227 
	C1323.814697,399.062378 1331.207764,399.821381 1337.914795,395.708801 
	C1342.031006,393.184906 1346.893799,391.797852 1351.532715,390.229187 
	C1356.614258,388.510864 1359.483398,383.640717 1357.955688,378.757233 
	C1357.391479,376.953400 1356.973633,375.103790 1356.283569,372.499573 
	C1349.683960,373.277740 1342.987305,374.067383 1336.330566,374.852295 
	C1334.205078,358.096771 1339.569092,342.750671 1343.073242,327.147766 
	C1343.377319,325.794586 1344.706055,324.650940 1344.933594,323.304352 
	C1347.271606,309.470184 1351.490601,296.186829 1356.406372,283.093201 
	C1358.192871,278.334778 1361.256958,274.273285 1362.930420,269.277893 
	C1364.129395,265.699280 1369.778564,262.903839 1374.019775,261.177917 
	C1390.108643,254.630539 1407.290649,252.231094 1424.236816,249.030670 
	C1429.034180,248.124603 1433.902466,247.520874 1438.764282,247.047134 
	C1443.987671,246.538132 1449.389160,245.425705 1454.447021,246.235992 
	C1461.531738,247.370987 1468.370728,250.039917 1475.314575,252.054047 
	C1476.387695,252.365326 1477.440552,252.852737 1478.533813,252.970337 
	C1483.505615,253.505142 1485.585815,256.025452 1482.886597,260.367950 
	C1479.111694,266.441071 1475.023560,273.603394 1469.159302,276.854492 
	C1451.218506,286.800751 1432.406250,295.187531 1413.846680,303.999054 
	C1406.306641,307.578857 1398.587402,310.795135 1390.870605,313.985535 
	C1382.534912,317.431854 1374.241333,321.084534 1365.655518,323.772308 
	C1362.006714,324.914551 1357.531494,324.187286 1356.592041,329.018219 
	C1355.846558,332.852478 1355.948486,336.888641 1356.004517,340.830475 
	C1356.052979,344.237671 1358.389893,345.121063 1361.453003,345.021454 
	C1368.335327,344.797546 1374.864624,343.804779 1381.210083,340.536072 
	C1389.664917,336.180634 1398.533691,332.596527 1407.343506,328.969818 
	C1422.224609,322.843781 1437.384399,317.358429 1452.057373,310.779144 
	C1459.681152,307.360779 1466.571655,302.269440 1473.688965,297.768890 
	C1482.437012,292.237152 1490.269775,285.597870 1498.173218,278.879242 
	C1507.386353,271.047424 1515.019897,262.978485 1517.948975,250.163879 
M1683.934692,377.998260 
	C1684.600952,378.000031 1685.311279,377.848755 1685.926758,378.026306 
	C1697.459839,381.351990 1708.940918,378.132843 1720.078247,376.455414 
	C1729.609741,375.019836 1740.081299,373.868958 1747.954468,366.599091 
	C1748.849976,365.772308 1750.270752,365.506439 1751.458252,365.005219 
	C1758.549805,362.012329 1766.066406,359.743713 1772.640503,355.873352 
	C1782.941528,349.808838 1793.973633,344.509918 1802.059448,335.321777 
	C1808.952759,327.488678 1817.791016,320.982819 1820.150269,309.829254 
	C1820.564819,307.869263 1822.095093,306.128998 1823.182251,304.330841 
	C1825.428345,300.615997 1827.956055,297.050781 1829.940552,293.203644 
	C1832.659302,287.933472 1834.725586,282.320251 1837.545532,277.110596 
	C1840.299194,272.023285 1843.683105,267.447815 1844.211426,261.246521 
	C1844.571411,257.022095 1846.780640,252.974991 1847.976685,248.795288 
	C1848.813965,245.869110 1850.385132,242.613708 1849.772461,239.928894 
	C1848.645264,234.989426 1846.302246,230.293518 1844.191284,225.620193 
	C1840.875122,218.278290 1837.429810,210.920746 1827.337646,211.698914 
	C1827.220581,211.707932 1827.103882,211.440414 1826.958130,211.394913 
	C1814.799561,207.602463 1802.969116,208.267319 1791.436401,213.854065 
	C1784.167114,217.375549 1776.847168,220.796326 1769.489990,224.130356 
	C1765.549438,225.916061 1760.588867,226.465027 1757.630859,229.224976 
	C1746.343506,239.756531 1732.401489,246.443085 1720.430176,255.938751 
	C1714.829590,260.381042 1707.863770,263.222168 1704.912598,270.494537 
	C1704.567505,271.345123 1703.530884,271.907745 1702.837036,272.625244 
	C1692.774048,283.031158 1681.954834,292.824646 1672.873413,304.026764 
	C1664.196167,314.730194 1658.383301,327.228302 1661.004883,341.897278 
	C1662.144287,348.272736 1663.141113,354.683411 1664.589233,360.989319 
	C1665.186646,363.590057 1666.164795,366.763702 1668.077515,368.270996 
	C1672.740723,371.945648 1678.051270,374.798981 1683.934692,377.998260 
z"/>
<path fill="#FFD369" opacity="1.000000" stroke="none" 
	d="
M813.633728,399.761444 
	C819.843384,393.993011 826.255188,388.861389 831.544739,382.757233 
	C842.571777,370.031952 853.019470,356.803894 863.650269,343.737701 
	C864.333496,342.897949 865.179504,341.423950 864.879028,340.673920 
	C862.789978,335.459290 865.690491,333.293701 869.859680,331.539246 
	C870.998291,331.060089 871.821899,329.832428 872.872742,328.872742 
	C869.241943,327.948761 865.997314,326.856445 862.666931,326.423523 
	C861.537720,326.276733 860.025269,327.615479 858.977112,328.587219 
	C856.086487,331.267212 853.565430,334.623108 848.835571,332.100647 
	C848.343079,331.838013 847.354370,332.550842 846.582214,332.760590 
	C836.196655,335.581299 825.827454,338.464783 815.415710,341.185516 
	C806.229553,343.585938 796.957397,345.661713 787.792542,348.137573 
	C777.717041,350.859406 767.707214,353.828857 757.700378,356.796875 
	C755.418030,357.473816 753.265320,358.587616 750.504395,359.726654 
	C744.643555,355.249878 738.357117,360.009857 731.930786,360.469421 
	C730.709717,360.556702 728.768433,360.249512 728.279419,359.444183 
	C720.943909,347.365204 724.297119,325.865540 742.775269,324.992584 
	C749.027710,324.697235 755.280823,324.000183 761.526733,324.073456 
	C773.142517,324.209778 783.905212,320.333923 794.895996,317.542450 
	C812.272156,313.129120 829.615601,308.584320 846.942810,303.981628 
	C860.942993,300.262695 874.801392,295.960327 888.897095,292.661957 
	C909.838379,287.761749 930.944275,283.568146 951.956604,278.966705 
	C958.103943,277.620483 964.219177,276.074310 970.260437,274.315033 
	C975.077148,272.912354 976.284302,268.714783 973.432007,263.922211 
	C966.512024,267.191101 959.590332,270.514191 952.611694,273.713226 
	C951.179077,274.369965 948.946838,275.414795 948.087158,274.822784 
	C944.205200,272.149475 940.260010,269.323181 937.186096,265.809692 
	C935.231689,263.575836 938.953674,254.356567 942.292725,252.381500 
	C946.842285,249.690430 951.702026,247.530090 956.347229,244.992996 
	C965.523560,239.981110 976.969543,240.464600 985.142273,233.007278 
	C986.940186,231.366760 988.928894,229.899063 990.972961,228.572586 
	C994.806152,226.085129 998.617676,224.445572 1003.390625,226.898804 
	C1008.770874,229.664154 1014.179138,227.437805 1019.485046,225.846359 
	C1021.904541,225.120667 1024.371826,224.527847 1026.847778,224.024139 
	C1029.063599,223.573334 1031.336548,223.407593 1033.557495,222.977722 
	C1043.715698,221.011719 1053.809570,218.635376 1064.029907,217.089584 
	C1077.410156,215.065887 1090.849854,213.097534 1104.336182,212.230865 
	C1113.493774,211.642395 1122.805664,212.680695 1131.989380,213.590134 
	C1136.899414,214.076385 1141.892212,215.326782 1146.444458,217.208160 
	C1149.035034,218.278870 1150.949951,221.197601 1152.930176,223.490448 
	C1158.278442,229.682816 1158.102539,236.024582 1154.447021,243.304550 
	C1147.955688,256.231812 1139.818481,268.013611 1129.867554,278.285492 
	C1123.708862,284.642731 1115.936035,289.493347 1108.656006,294.695862 
	C1090.192139,307.890411 1071.490112,320.754608 1053.167236,334.139801 
	C1050.282104,336.247437 1048.878174,340.382416 1046.628662,343.826172 
	C1047.712646,344.647003 1049.164551,345.179657 1049.285156,345.926971 
	C1050.273071,352.052673 1054.973022,351.245972 1058.938599,350.926666 
	C1072.979004,349.796112 1086.994629,348.359070 1101.020264,347.044617 
	C1108.365356,346.356262 1115.737061,345.878632 1123.049805,344.939789 
	C1129.290649,344.138580 1135.466187,342.822937 1141.665649,341.708038 
	C1142.280762,341.597473 1143.098877,340.933716 1143.424683,341.143921 
	C1150.979858,346.015991 1158.332275,339.957092 1165.927490,340.706238 
	C1171.986694,341.303894 1178.258667,339.546844 1184.452148,339.022278 
	C1197.208374,337.941956 1209.964600,336.779114 1222.744995,336.123779 
	C1226.006592,335.956543 1229.359009,337.560486 1233.206177,338.478638 
	C1237.538940,326.888702 1241.989502,314.983978 1247.039917,301.474274 
	C1243.090576,302.535553 1240.389526,303.007141 1237.889160,303.989197 
	C1233.458130,305.729370 1229.147949,307.777161 1224.789795,309.702271 
	C1223.899048,310.095734 1223.024780,310.859436 1222.135010,310.871521 
	C1211.194458,311.020386 1200.094604,312.098022 1190.094971,306.011505 
	C1186.741455,303.970306 1184.637329,299.972076 1179.536499,300.367798 
	C1178.591431,300.441132 1176.937622,294.716888 1176.061035,291.544098 
	C1174.773438,286.883484 1173.462402,282.155273 1172.967285,277.372406 
	C1172.546509,273.306549 1173.017700,269.089233 1173.571411,265.003601 
	C1173.909912,262.506042 1174.727417,259.864380 1176.060669,257.747833 
	C1181.105957,249.738434 1179.447388,240.050323 1182.951050,231.671875 
	C1186.270630,223.733414 1190.812744,217.236649 1199.661621,214.730789 
	C1205.280640,213.139526 1216.910889,217.193649 1219.521240,222.158875 
	C1220.040283,223.146133 1219.874878,224.703354 1219.571167,225.880676 
	C1216.309326,238.527023 1212.587036,251.070328 1209.840332,263.824768 
	C1208.949585,267.961121 1210.077271,272.752106 1211.153809,277.023865 
	C1212.044189,280.556885 1216.928101,281.854889 1220.272339,280.284241 
	C1221.548584,279.684906 1223.022339,278.961945 1224.335327,279.080139 
	C1229.763184,279.568848 1233.859253,277.205170 1238.128784,274.181854 
	C1240.466675,272.526367 1244.161011,272.910248 1247.079468,271.900024 
	C1248.609009,271.370544 1249.730469,269.741333 1251.134399,268.747498 
	C1252.547607,267.747131 1253.980225,266.630646 1255.580933,266.062256 
	C1265.046997,262.700653 1271.693481,256.378937 1276.813477,247.779572 
	C1282.698242,237.895920 1289.286499,228.426788 1295.685181,218.855042 
	C1300.357666,211.865387 1305.083618,204.901505 1310.095337,198.156082 
	C1311.238403,196.617615 1313.595581,195.302216 1315.500366,195.141098 
	C1320.459229,194.721664 1325.477051,195.000015 1330.291626,195.000015 
	C1331.588989,197.125565 1332.760010,199.044312 1334.075806,201.200241 
	C1330.232544,205.537811 1327.707886,210.307846 1330.918579,216.298523 
	C1331.327026,217.060760 1331.285034,218.478180 1330.835693,219.218048 
	C1328.291138,223.408432 1325.486328,227.439987 1322.910645,231.612411 
	C1320.192871,236.015121 1317.776245,240.608017 1314.966187,244.948380 
	C1311.708618,249.980011 1308.153809,254.818634 1304.750244,259.756378 
	C1300.337891,266.157318 1294.399292,272.027954 1291.904175,279.108734 
	C1287.995728,290.199829 1278.413452,297.470276 1274.673828,308.517029 
	C1271.012573,319.332703 1266.187744,329.755127 1261.848877,340.340088 
	C1261.293823,341.694427 1260.749023,343.096497 1259.929688,344.291443 
	C1256.135132,349.825226 1256.696167,355.565735 1258.802368,361.480408 
	C1259.393066,363.139069 1259.325073,365.078186 1260.106812,366.608978 
	C1260.789185,367.945129 1262.125366,369.051483 1263.391113,369.952698 
	C1264.410767,370.678741 1265.806396,370.848999 1266.949097,371.434143 
	C1273.634033,374.857086 1274.796509,378.756653 1271.173096,385.395966 
	C1267.742188,391.682587 1261.877075,393.762512 1255.075073,393.235565 
	C1246.354614,392.560059 1242.622070,386.095581 1237.198975,380.991547 
	C1228.896606,373.177582 1230.719116,362.942078 1228.392700,353.418304 
	C1220.451172,351.497498 1212.682861,354.460846 1204.718994,355.990265 
	C1197.859985,357.307404 1190.894165,358.090057 1183.959595,358.985748 
	C1168.428589,360.991760 1152.863892,362.754883 1137.362793,364.966614 
	C1131.475586,365.806580 1125.775879,367.927368 1119.894531,368.855560 
	C1116.026733,369.466003 1111.864868,368.368225 1108.049316,369.122040 
	C1099.378540,370.834930 1090.871460,373.363983 1082.226074,375.227325 
	C1080.041992,375.698059 1076.784302,375.775452 1075.432251,374.516754 
	C1072.987305,372.240631 1071.147827,373.835541 1069.265015,374.387238 
	C1051.586670,379.567383 1034.856445,377.365875 1019.121277,367.965790 
	C1013.148254,364.397491 1009.930725,353.314026 1012.505371,346.966492 
	C1014.443481,342.188660 1015.917969,337.181244 1018.290833,332.637451 
	C1019.643066,330.048309 1022.270447,328.059875 1024.517334,326.013580 
	C1041.181152,310.837097 1060.746338,299.876068 1079.654663,287.932617 
	C1084.523438,284.857361 1088.485840,280.380310 1093.073608,276.816406 
	C1097.012817,273.756439 1101.235107,271.057983 1105.359741,268.240082 
	C1112.859253,263.116608 1119.707520,255.211624 1123.726562,246.622620 
	C1118.580322,242.008484 1112.248413,241.416916 1105.724365,240.939194 
	C1091.419434,239.891663 1077.291992,242.126953 1063.134644,243.222198 
	C1055.354248,243.824097 1047.763550,246.730362 1040.048706,248.420959 
	C1037.968872,248.876709 1035.628052,248.276154 1033.611816,248.863785 
	C1024.504517,251.518204 1015.395508,254.216812 1006.482056,257.438812 
	C1004.935181,257.997925 1004.327209,261.154297 1003.285522,263.111053 
	C1003.653625,263.512085 1004.021729,263.913116 1004.389832,264.314148 
	C1008.596619,263.876038 1012.819824,263.555908 1017.006226,262.972168 
	C1023.260803,262.100037 1029.482788,260.994995 1035.735718,260.109192 
	C1036.798340,259.958679 1038.304688,260.020142 1038.992065,260.651703 
	C1041.776123,263.210022 1044.394653,265.962372 1046.929810,268.773285 
	C1048.939941,271.001923 1049.634766,273.421722 1047.453003,276.109955 
	C1043.727173,280.700775 1040.460083,285.731018 1036.298950,289.871857 
	C1034.386597,291.774902 1030.746826,293.004944 1028.005493,292.821472 
	C1018.040039,292.154510 1008.287354,293.084900 998.547852,294.978821 
	C993.661926,295.928925 990.511902,297.509460 989.680420,303.572601 
	C988.852722,309.608093 985.392883,315.247955 983.435425,321.176300 
	C982.276306,324.686890 981.209839,328.404572 981.111938,332.056183 
	C980.812561,343.224518 980.652039,354.424072 981.229126,365.570496 
	C981.388184,368.643524 980.773682,373.666443 986.454041,374.490723 
	C987.039612,374.575714 987.968018,378.543518 987.282776,380.046478 
	C984.479309,386.195648 981.789490,392.640808 977.593689,397.782074 
	C976.070374,399.648621 970.177124,399.075195 966.768494,398.023926 
	C961.056274,396.262268 951.396057,381.004883 952.104797,375.269684 
	C953.096375,367.245422 953.714722,359.392548 951.264709,351.482361 
	C950.852966,350.153259 952.599609,348.275635 952.950195,346.569519 
	C954.379578,339.612854 955.521057,332.595123 957.045837,325.660828 
	C957.732117,322.539673 959.271362,319.612732 960.057251,316.505035 
	C960.924011,313.077576 961.665161,309.560913 961.869019,306.048767 
	C961.963379,304.422974 960.697632,301.323120 959.972168,301.300140 
	C957.562256,301.223755 953.992615,301.441895 952.895752,302.986877 
	C949.505188,307.762543 944.632446,308.626892 939.753906,308.875000 
	C931.511353,309.294220 923.440125,309.570099 916.824707,315.507904 
	C916.131042,316.130524 914.619873,316.048645 913.510803,315.970337 
	C902.532410,315.194916 893.055969,320.444702 883.059021,323.566345 
	C882.223511,323.827240 881.096741,325.040527 881.100342,325.806641 
	C881.130676,332.243195 881.586060,338.682373 881.461731,345.112030 
	C881.427002,346.907654 880.056030,348.786163 878.976074,350.412872 
	C878.308716,351.418091 876.621338,351.809448 876.097290,352.836334 
	C872.298950,360.279510 868.674866,367.811768 865.019409,375.327362 
	C864.810425,375.757111 864.983154,376.500763 864.687622,376.741486 
	C854.254944,385.238464 848.722656,398.173370 837.443420,406.051575 
	C823.992493,415.446716 811.304260,425.928741 797.933533,435.445404 
	C783.460815,445.746460 768.675720,455.714203 752.049194,462.293365 
	C745.527344,464.874054 738.284790,468.169434 731.710022,467.547729 
	C718.407715,466.289856 704.892822,468.501160 691.633545,462.469055 
	C681.819702,458.004425 678.776184,450.069519 675.358337,442.214111 
	C669.837158,429.524780 668.136047,415.820709 668.996826,401.908966 
	C669.683777,390.806366 672.145020,380.137939 676.541199,369.900757 
	C679.784119,362.349060 682.526184,354.561798 686.131958,347.192871 
	C688.957703,341.417969 692.660767,336.056274 696.156128,330.628265 
	C705.015686,316.870209 713.860046,303.099304 722.961487,289.501587 
	C726.217407,284.637146 730.338196,280.360626 733.804321,275.625549 
	C738.010193,269.880005 742.186829,264.085358 745.931946,258.036896 
	C751.177307,249.565460 755.964233,240.811203 761.075500,232.254547 
	C761.846985,230.963089 763.464050,230.207550 764.432678,228.998077 
	C770.340149,221.622192 776.015869,214.054108 782.102905,206.831696 
	C784.819214,203.608765 788.305481,201.032806 791.458679,198.181335 
	C792.269287,197.448257 793.388550,196.941315 793.948792,196.064026 
	C801.226501,184.668213 810.651978,175.435776 821.900696,168.005753 
	C822.567261,167.565475 823.621704,167.122284 823.739136,166.530457 
	C825.159180,159.368286 831.877441,157.624924 836.693909,154.223648 
	C843.803528,149.202988 851.749084,145.370865 858.896484,140.397308 
	C864.553528,136.460907 870.608704,135.658127 877.041321,136.117462 
	C878.393005,136.213974 880.362305,137.487610 880.812622,138.683578 
	C882.788879,143.932480 884.443237,149.315063 885.963928,154.719620 
	C887.607300,160.559952 881.729675,162.707458 879.701599,166.765198 
	C875.079895,176.012085 865.230042,178.670670 857.541565,184.011765 
	C851.859314,187.959167 845.905273,190.952942 838.772644,192.609985 
	C833.098511,193.928192 828.364746,199.478745 823.325378,203.297775 
	C817.082153,208.029129 810.547852,212.485687 804.900696,217.860886 
	C800.087097,222.442627 796.384644,228.184128 792.130737,233.363297 
	C785.799255,241.071808 779.238892,248.599594 773.104797,256.460876 
	C767.514160,263.625824 762.117737,270.970062 757.080688,278.531738 
	C751.439697,286.999969 746.263611,295.779816 740.949341,304.463318 
	C733.619141,316.440704 726.139954,328.334137 719.121338,340.492523 
	C713.795654,349.718231 708.191040,358.955688 704.388611,368.833862 
	C701.297546,376.863708 701.176270,385.984009 698.869019,394.382050 
	C696.134766,404.334229 699.699890,413.482117 703.308289,421.696991 
	C710.668457,438.452972 724.152222,442.825928 742.387085,437.309021 
	C759.119995,432.246460 774.378662,424.205170 789.236633,415.285370 
	C797.394165,410.388062 805.305359,405.080444 813.633728,399.761444 
z"/>
<path fill="#FFD369" opacity="1.000000" stroke="none" 
	d="
M99.000725,371.130432 
	C98.992889,377.439575 98.846115,383.267853 99.026222,389.085999 
	C99.148087,393.022949 100.577019,396.144836 105.722656,395.990570 
	C105.925621,387.444702 111.779076,392.084930 115.330391,392.124359 
	C122.939079,392.208801 123.860069,393.550140 123.008652,400.893860 
	C122.970512,401.222839 123.013947,401.560394 122.998405,401.892975 
	C122.497559,412.616730 122.478401,412.562286 112.451599,416.023102 
	C106.668343,418.019226 101.046448,420.531891 95.183716,422.231995 
	C91.047287,423.431488 86.478287,424.645111 82.927284,420.448578 
	C82.606186,420.069061 82.273491,419.512421 81.862518,419.423126 
	C71.451019,417.161682 71.557449,408.115051 70.138046,400.502594 
	C68.821548,393.441956 67.793228,386.114655 68.201393,378.994385 
	C68.843529,367.792633 70.169144,356.541016 72.358757,345.540100 
	C74.936188,332.590790 78.220863,319.722382 82.170319,307.123413 
	C85.865150,295.336670 90.990143,284.005524 95.172668,272.361450 
	C97.449799,266.021912 99.052917,259.441589 101.002754,252.982773 
	C102.814995,246.979767 104.710793,241.001938 106.512596,234.995865 
	C107.100792,233.035233 107.533806,231.026337 107.994171,229.029465 
	C108.679955,226.054825 109.310539,223.067459 109.998413,220.093323 
	C110.286873,218.846146 111.022430,217.594482 110.940353,216.386597 
	C110.290123,206.817780 115.188454,199.546066 120.848198,192.727386 
	C126.939308,185.389008 133.732178,183.704239 142.392365,188.040543 
	C148.327835,191.012527 153.815628,189.873093 159.356262,188.111603 
	C168.647034,185.157867 177.723190,181.523651 187.031631,178.632965 
	C192.412064,176.962097 198.091507,176.274307 203.591766,174.957672 
	C205.384796,174.528458 206.973557,173.243500 208.766800,172.818054 
	C212.203903,172.002625 215.829330,171.869293 219.178009,170.819458 
	C223.899673,169.339233 228.326004,166.856964 233.086426,165.574417 
	C240.073547,163.691925 247.223923,162.383057 254.343842,161.036469 
	C259.449860,160.070755 264.607666,159.348526 269.764130,158.687164 
	C277.364288,157.712341 284.975800,156.805786 292.601715,156.069504 
	C294.136749,155.921310 296.335022,156.121124 297.241180,157.086380 
	C301.670593,161.804840 309.387909,162.202591 312.365143,168.745651 
	C312.690552,169.460800 313.373169,170.289536 314.069458,170.517258 
	C321.394928,172.912827 320.155762,178.993408 319.946289,184.422501 
	C319.643982,192.260254 321.847961,200.371124 317.992493,207.849930 
	C316.510345,210.724991 314.291870,213.210297 312.579407,215.978653 
	C307.206879,224.663589 297.905914,228.979889 290.807068,235.732117 
	C284.688904,241.551544 276.928925,245.124710 270.493256,250.225861 
	C255.286407,262.279449 237.365891,269.959229 222.156219,281.926422 
	C213.708130,288.573486 204.351074,294.065369 195.403702,300.077881 
	C195.471680,300.518127 195.539658,300.958405 195.607635,301.398651 
	C205.043427,300.949432 214.475494,300.378174 223.916199,300.090729 
	C231.074463,299.872833 238.264618,300.355835 245.402985,299.916290 
	C255.037964,299.323059 264.260681,301.378387 273.562958,303.218048 
	C281.974854,304.881653 290.505219,306.042908 298.809784,308.119629 
	C304.635712,309.576569 310.021820,313.086823 315.874268,314.064636 
	C322.389343,315.153076 326.203369,320.371490 331.884918,322.395996 
	C335.369598,323.637665 336.898193,326.224762 338.247253,329.550049 
	C341.387634,337.290894 340.399628,343.747894 336.555511,351.492828 
	C330.464508,363.764709 319.052063,368.977325 308.943298,375.749725 
	C300.229492,381.587616 289.786835,384.788574 280.776642,390.256317 
	C271.801056,395.703125 262.071106,398.869690 252.347305,402.212402 
	C240.356171,406.334503 228.210419,410.005493 216.201767,414.078674 
	C212.306808,415.399811 208.761841,417.816742 204.831879,418.957916 
	C195.869446,421.560333 186.705902,423.471436 177.747986,426.087677 
	C172.993195,427.476349 168.494431,429.744232 163.890533,431.640564 
	C163.606430,431.757568 163.262726,432.063721 163.201736,432.338501 
	C162.259949,436.581482 159.240845,436.912933 155.588440,436.834137 
	C148.764160,436.686798 141.929993,437.030792 135.103790,436.924286 
	C131.634674,436.870209 130.666733,434.005615 129.694382,431.242310 
	C126.356110,421.755432 131.800949,410.606689 143.063431,409.757172 
	C151.173965,409.145386 159.201080,406.590027 167.110870,404.354706 
	C178.422424,401.158020 189.624512,397.560089 200.813995,393.949524 
	C210.673874,390.767975 220.522568,387.525604 230.247437,383.958954 
	C240.461700,380.212860 250.551544,376.119843 260.632416,372.022675 
	C263.430542,370.885406 265.947693,369.076080 268.690643,367.780182 
	C277.092987,363.810638 285.674713,360.195587 293.914764,355.918732 
	C297.727173,353.939941 301.007599,350.858215 304.274353,347.986572 
	C304.788147,347.534912 304.382751,345.143158 303.648132,344.328949 
	C301.175598,341.588470 298.582092,339.529694 294.486511,338.461060 
	C287.410187,336.614685 280.807007,332.941742 274.022736,329.995117 
	C270.730194,328.565094 267.495300,326.861755 263.992249,329.474213 
	C263.630798,329.743805 263.063812,329.959534 262.640656,329.892822 
	C241.900391,326.622437 221.003296,328.387573 200.183060,328.180511 
	C193.316223,328.112244 186.440384,330.216583 179.546768,331.169220 
	C174.206268,331.907227 168.827438,332.363647 163.473694,333.011658 
	C159.611679,333.479187 155.656616,334.865570 151.935242,334.377289 
	C147.353119,333.776184 142.301208,335.735046 138.078033,331.806793 
	C136.054962,329.925018 132.989548,328.954712 130.230469,328.118378 
	C124.993515,326.530853 122.223434,323.387726 122.000526,318.024078 
	C121.601151,308.414246 124.528404,304.334534 133.902115,300.454407 
	C137.277527,299.057190 140.256165,296.728241 143.540817,295.072235 
	C144.909744,294.382019 146.737091,293.775055 148.127853,294.101685 
	C153.261658,295.307404 156.312164,292.226868 159.923721,289.514618 
	C163.065903,287.154877 166.931244,285.728119 170.544510,284.032928 
	C175.300629,281.801666 180.443558,280.225922 184.862152,277.472748 
	C206.139252,264.215240 227.295517,250.759720 248.336349,237.130066 
	C253.410828,233.842941 257.871887,229.611862 262.639496,225.845856 
	C263.785248,224.940826 265.029602,224.160812 266.226959,223.320938 
	C273.927246,217.919724 281.283081,212.217239 284.993317,203.092377 
	C286.819641,198.600723 285.971985,195.054871 281.521637,193.354126 
	C277.539185,191.832169 273.962402,188.664276 268.595062,191.653610 
	C265.416199,193.424072 260.452332,192.031036 256.291809,191.989288 
	C246.120575,191.887222 236.626694,195.302612 226.899933,197.538589 
	C222.644806,198.516754 218.293961,199.078171 214.037735,200.052368 
	C212.046692,200.508087 210.066269,201.296204 208.282425,202.293808 
	C206.355942,203.371216 205.039612,207.305618 202.336792,203.144608 
	C202.252075,203.014221 200.927307,203.651627 200.202957,203.980225 
	C192.442795,207.500519 184.694336,211.046783 176.918045,214.531021 
	C176.212555,214.847137 175.212982,215.097794 174.558563,214.843002 
	C169.564423,212.898697 165.396408,214.071075 161.660446,217.754486 
	C160.941803,218.463028 159.655899,218.947632 158.636017,218.940201 
	C153.360382,218.901764 149.858902,222.564850 145.540466,224.583008 
	C137.016190,228.566757 136.036469,236.102524 133.907578,243.587662 
	C130.738586,254.729752 126.938103,265.691010 123.680267,276.809509 
	C122.012825,282.500244 121.995552,288.672760 117.383049,293.367859 
	C116.280670,294.489990 116.949234,297.190033 116.403557,299.046844 
	C112.482552,312.389069 107.988029,325.583374 104.619392,339.060547 
	C102.032471,349.410278 100.823013,360.104309 99.000725,371.130432 
z"/>
<path fill="#FFD369" opacity="1.000000" stroke="none" 
	d="
M534.429993,234.227386 
	C527.711121,236.877670 521.030701,238.591843 513.508789,238.217026 
	C502.961304,237.691452 492.319244,238.387360 481.758545,239.137222 
	C477.504517,239.439301 473.357849,241.262772 469.164825,242.403030 
	C468.538879,242.573257 467.890320,243.040375 467.313568,242.955109 
	C456.095337,241.296753 446.562042,247.635834 436.106293,249.637100 
	C427.771606,251.232361 419.731781,254.411316 411.600739,257.011261 
	C406.575134,258.618225 402.907074,261.294312 401.883606,267.200775 
	C400.883881,272.970428 398.771912,278.547333 396.707123,285.746796 
	C401.560913,284.833771 404.671143,284.243439 407.783752,283.665802 
	C409.055542,283.429749 410.334045,283.020111 411.606720,283.030518 
	C430.018066,283.180939 448.140564,281.043274 466.166840,277.241516 
	C470.957825,276.231049 476.460541,277.102478 481.308228,278.367615 
	C484.657104,279.241608 486.315308,283.418365 484.581116,286.533783 
	C482.001801,291.167480 478.730225,295.657806 474.845673,299.219208 
	C472.951050,300.956207 468.961151,300.277466 465.994690,301.000122 
	C457.226196,303.136108 448.520477,305.532959 439.738647,307.609711 
	C435.333160,308.651489 430.160706,308.097473 426.488159,310.240784 
	C419.323364,314.422241 411.414734,312.108673 404.150726,314.335754 
	C401.851288,315.040771 399.232819,315.151123 396.813080,314.937103 
	C388.570099,314.208252 382.064636,320.101959 379.570251,328.334900 
	C377.055695,336.634552 376.666595,345.192139 374.263397,353.445374 
	C372.650238,358.985199 372.838684,365.223969 373.155518,371.099640 
	C373.440735,376.388641 376.298309,380.699341 381.781830,382.323547 
	C387.207458,383.930603 392.011017,382.044373 396.468842,379.025269 
	C397.274536,378.479584 398.006958,377.153778 398.694305,377.206970 
	C407.877319,377.917786 413.019409,370.251984 420.264618,367.022034 
	C428.104767,363.526886 433.965851,356.924500 437.378052,350.281982 
	C441.078064,343.079102 447.538940,339.718018 452.076569,334.064148 
	C452.619965,333.387085 453.961029,333.137085 454.955475,333.077911 
	C457.267578,332.940430 459.595947,332.985931 461.913208,333.074799 
	C462.681641,333.104248 463.618958,333.281647 464.165009,333.754242 
	C466.300110,335.602081 466.977997,347.009125 465.222473,349.271210 
	C457.224243,359.577515 449.892517,370.504700 441.021851,379.994049 
	C435.043549,386.389374 426.906677,390.770020 419.722260,396.033936 
	C409.319977,403.655487 396.335358,406.008240 385.485535,412.741791 
	C384.753082,413.196320 383.541473,412.917664 382.553009,412.914032 
	C378.555450,412.899353 374.549164,413.006378 370.563934,412.769318 
	C368.369934,412.638824 365.594147,412.590393 364.179443,411.300140 
	C361.982208,409.296204 359.832916,408.121490 356.956573,407.370575 
	C347.384460,404.871460 344.630371,396.486755 342.172241,388.466858 
	C340.665436,383.550690 340.393188,378.185486 340.103180,372.991943 
	C339.910797,369.547791 338.690002,365.580261 342.489166,362.912506 
	C342.888550,362.632050 343.041077,361.684113 342.964996,361.089783 
	C341.792450,351.929993 346.414825,343.972412 348.356506,335.473480 
	C349.197113,331.794037 351.459930,328.460205 352.550659,324.812073 
	C353.973663,320.052338 355.518005,315.173737 355.801849,310.276245 
	C356.040894,306.151794 356.538452,302.283966 359.322205,299.428894 
	C368.459381,290.057617 370.985992,278.155975 373.054688,265.933441 
	C373.915680,260.846405 375.246246,255.818115 376.677917,250.853851 
	C378.348022,245.062897 382.645691,242.125687 388.600311,241.948318 
	C390.304871,241.897537 392.407990,241.737442 393.620728,240.754440 
	C405.649750,231.004089 420.532562,224.792572 437.141357,221.925827 
	C459.294098,218.102219 481.598114,217.616898 503.961395,218.070892 
	C507.990051,218.152679 511.974945,219.619949 516.018982,219.917633 
	C520.647522,220.258316 525.319519,220.001419 529.972656,220.015411 
	C535.826538,220.033020 536.597534,220.772141 536.996643,226.771301 
	C537.051575,227.597168 537.004211,228.429855 537.004211,228.180542 
	C541.061768,225.198181 545.205444,220.028030 550.128906,219.129333 
	C555.082947,218.225052 560.837830,221.487106 566.174561,223.140472 
	C566.968689,223.386490 567.939697,224.844864 567.905212,225.705292 
	C567.568359,234.100006 566.947571,242.483093 566.587219,250.877182 
	C566.330994,256.845978 564.060852,262.942444 567.824341,268.747131 
	C568.381897,269.607086 567.266602,271.491669 567.055847,272.921478 
	C566.520630,276.552124 564.051575,280.280823 567.747437,283.738770 
	C568.274170,284.231598 568.049866,285.655457 567.982971,286.635437 
	C566.838501,303.403595 572.017639,319.057922 578.750061,333.716461 
	C584.153625,345.481689 592.543579,355.970306 600.349915,366.474274 
	C602.470703,369.327942 607.249634,370.246124 610.880066,371.895264 
	C611.433838,372.146851 612.700989,371.793701 613.089417,371.293823 
	C616.785583,366.537476 621.007751,362.033173 623.812683,356.780334 
	C627.352112,350.151917 630.185303,343.040283 632.425964,335.857239 
	C634.292664,329.872742 634.903137,323.491150 635.991333,317.271667 
	C636.436523,314.727631 636.622314,312.139282 637.018433,309.585388 
	C637.637390,305.595032 638.372681,301.622711 638.988892,297.631958 
	C639.682556,293.140106 640.326477,288.640076 640.943176,284.136932 
	C642.311707,274.143677 643.839661,264.166199 644.893005,254.139282 
	C645.242798,250.808838 643.820923,247.294464 644.157043,243.959763 
	C644.501404,240.543350 646.359131,237.302292 646.925537,233.880371 
	C647.880615,228.109451 648.012146,222.193314 649.117859,216.459290 
	C649.892395,212.442383 651.930664,209.594727 657.135864,211.833145 
	C659.719482,212.944138 663.067017,213.355850 665.813660,212.806778 
	C673.826660,211.204941 677.793335,217.693726 683.317749,220.948761 
	C686.110107,222.594040 686.924561,225.206726 685.150085,228.590820 
	C683.029785,232.634293 681.745728,236.765686 677.272095,239.500092 
	C671.365662,243.110245 669.719116,249.523895 668.910217,256.262268 
	C667.848755,265.104553 666.107666,273.864502 664.698975,282.666290 
	C664.081482,286.524628 663.031189,290.407257 663.092407,294.264343 
	C663.356750,310.930115 660.546143,327.132538 655.430786,342.852234 
	C651.802490,354.001984 648.278381,365.539703 642.313843,375.465668 
	C637.333435,383.753967 629.403137,390.535614 620.174744,395.006805 
	C617.315002,396.392426 614.438843,398.009430 612.069031,400.088959 
	C606.076538,405.347412 599.638062,403.458069 593.853638,400.762268 
	C586.705261,397.430817 579.823730,393.260925 573.482971,388.567017 
	C569.963989,385.962036 567.791626,381.543579 564.994507,377.956329 
	C561.997864,374.113220 558.990051,370.278687 555.962402,366.459961 
	C555.450867,365.814789 554.533630,365.369293 554.279602,364.660919 
	C551.794556,357.729950 550.642761,349.948578 546.709839,343.996094 
	C540.762817,334.995331 542.635681,323.654388 535.846619,314.534058 
	C534.565613,316.254852 533.229065,317.787170 532.188110,319.499268 
	C529.336914,324.188873 526.581055,328.937622 523.862976,333.705994 
	C523.415955,334.490204 523.394897,335.506866 523.100586,336.390594 
	C522.411621,338.459320 521.913940,340.639709 520.898071,342.539124 
	C519.696289,344.786163 517.511292,346.594940 516.657776,348.925293 
	C513.229431,358.285339 509.992157,367.724304 507.039886,377.244354 
	C506.147430,380.122192 506.841461,383.476074 506.040680,386.401642 
	C504.454620,392.196106 509.232025,395.258636 511.147461,399.500977 
	C514.003540,405.826843 511.659149,412.815948 505.281921,414.918701 
	C498.571930,417.131226 491.759308,419.044800 484.948761,420.934875 
	C481.558960,421.875641 475.101227,417.878937 473.855377,414.431793 
	C470.231720,404.405731 472.059174,394.344727 474.305878,384.535248 
	C480.115265,359.170471 493.055267,336.860809 505.162079,314.191071 
	C508.394867,308.137695 510.351532,301.412201 513.080444,295.075562 
	C514.098633,292.711426 516.019104,290.711823 516.895569,288.314728 
	C522.034058,274.261414 527.019104,260.151428 531.975098,246.032227 
	C533.145142,242.698715 534.005310,239.256363 535.321045,235.364594 
	C535.701050,234.410797 535.768066,233.956497 535.835083,233.502197 
	C535.366699,233.743927 534.898315,233.985657 534.429993,234.227386 
z"/>
<path fill="#FFD369" opacity="1.000000" stroke="none" 
	d="
M1910.666016,222.241943 
	C1913.265015,223.825363 1914.314087,225.609512 1914.050903,228.430466 
	C1912.939819,240.344238 1912.015503,252.275436 1911.032959,264.201111 
	C1910.978394,264.863525 1910.732544,265.908051 1911.047485,266.143585 
	C1915.959839,269.816895 1911.556519,274.175201 1912.028809,278.138977 
	C1913.089600,287.043518 1913.744629,296.045898 1915.583984,304.794220 
	C1917.400024,313.431763 1920.087891,321.946381 1923.141357,330.239532 
	C1924.825928,334.815277 1927.924438,338.904175 1930.602661,343.072998 
	C1935.581787,350.822784 1937.974976,360.330170 1945.754761,366.153137 
	C1948.814087,368.442932 1952.289185,370.281647 1955.802979,371.796478 
	C1956.847534,372.246735 1959.345215,371.337311 1960.021973,370.298492 
	C1963.952271,364.265808 1969.313477,359.225830 1971.178467,351.729218 
	C1972.514648,346.357910 1976.119507,341.582397 1977.768433,336.249329 
	C1979.710815,329.967255 1980.599243,323.362549 1982.013550,316.912903 
	C1982.827515,313.200806 1983.826782,309.529327 1984.640259,305.817108 
	C1984.919800,304.541321 1985.033447,303.191254 1984.976562,301.885864 
	C1984.616577,293.627716 1985.739868,285.700684 1988.463013,277.791718 
	C1989.968140,273.420532 1989.567627,268.388916 1989.995850,263.652252 
	C1990.613281,256.822021 1990.478027,249.967438 1990.543213,243.162186 
	C1990.645508,232.469147 1994.254517,221.809692 1996.394165,211.057724 
	C2004.500610,211.766739 2011.991699,211.277893 2018.663330,213.384415 
	C2023.584351,214.938141 2027.546753,219.755127 2031.659058,223.428589 
	C2032.377319,224.070221 2032.285400,226.630920 2031.598022,227.652664 
	C2029.092285,231.376984 2028.300781,235.727249 2023.590210,238.742676 
	C2019.033813,241.659302 2014.938477,246.777420 2014.719238,254.068329 
	C2014.443115,263.257965 2012.095459,272.381744 2010.701172,281.542999 
	C2010.062500,285.739746 2009.034180,289.966278 2009.098389,294.165283 
	C2009.353027,310.835907 2006.568115,327.046478 2001.456055,342.773865 
	C1997.830566,353.928223 1994.303711,365.464478 1988.351929,375.404663 
	C1983.384277,383.701172 1975.345703,390.360718 1966.259766,394.977478 
	C1963.268066,396.497528 1960.325317,398.156769 1957.526489,400.004364 
	C1951.314941,404.104980 1944.846680,404.080688 1938.516479,400.046265 
	C1932.647949,396.306274 1926.257446,393.287933 1920.776855,389.068512 
	C1916.630493,385.876312 1913.433594,381.393860 1910.039185,377.298950 
	C1907.041260,373.682495 1904.328003,369.827484 1901.550415,366.032990 
	C1900.906128,365.152893 1900.462524,364.112427 1900.008301,363.108734 
	C1896.259644,354.827118 1892.276123,346.638184 1888.906616,338.204376 
	C1887.321899,334.237701 1887.140503,329.733307 1885.931885,325.586578 
	C1884.882690,321.987152 1883.282593,318.548431 1881.926025,315.038666 
	C1879.945190,318.128448 1877.967407,321.220123 1875.982788,324.307373 
	C1874.059937,327.298187 1870.768921,330.161896 1870.486450,333.298279 
	C1869.896362,339.847900 1864.253906,343.209595 1862.438843,348.888397 
	C1859.305786,358.690033 1854.902954,368.112823 1852.189575,378.011658 
	C1850.527100,384.076050 1849.145874,390.594879 1855.454224,396.285339 
	C1861.174438,401.445374 1858.161255,411.838989 1850.737183,414.612061 
	C1844.250366,417.035004 1837.567383,418.953827 1830.915283,420.904907 
	C1827.309692,421.962311 1821.236816,418.166199 1819.889282,414.479675 
	C1816.033203,403.931030 1818.236694,393.381104 1820.549927,383.108704 
	C1825.648926,360.466644 1837.440552,340.550323 1847.527588,319.968964 
	C1850.439941,314.026947 1854.119263,308.443512 1856.797852,302.407532 
	C1865.542358,282.701324 1874.002197,262.886780 1879.093140,241.801163 
	C1880.363403,236.539841 1882.113159,230.979614 1885.187866,226.655487 
	C1891.461914,217.831833 1897.240234,217.187027 1910.666016,222.241943 
z"/>
<path fill="#FFD369" opacity="1.000000" stroke="none" 
	d="
M1511.611816,315.756287 
	C1508.300415,316.640900 1505.290283,317.175629 1502.377930,318.039825 
	C1499.311035,318.949982 1496.371582,320.284973 1493.313965,321.232941 
	C1489.953003,322.274963 1486.562012,323.590729 1483.109253,323.873627 
	C1478.689941,324.235748 1476.812500,320.729065 1477.076050,316.456299 
	C1477.714355,306.104279 1484.756958,301.889862 1492.967407,298.520142 
	C1500.205811,295.549469 1506.846924,291.275787 1514.685059,289.551971 
	C1519.697876,288.449554 1524.574097,286.362671 1529.219604,284.113831 
	C1531.403442,283.056610 1533.670410,280.894989 1534.578003,278.689850 
	C1539.603516,266.479553 1544.790894,254.283737 1548.807861,241.726257 
	C1552.283936,230.859222 1554.378906,219.540421 1556.891602,208.377930 
	C1559.779419,195.548447 1563.321167,196.656326 1574.215576,198.169724 
	C1579.682373,198.929138 1582.627686,202.453033 1581.848267,208.440170 
	C1580.367554,219.813187 1578.500244,231.189514 1575.849854,242.340179 
	C1573.600586,251.803894 1570.014771,260.949310 1567.058594,270.247742 
	C1566.931885,270.646179 1567.187866,271.166321 1567.339355,272.069336 
	C1578.798462,270.370483 1590.205200,268.911438 1601.517456,266.916748 
	C1608.491577,265.687012 1615.345947,263.729858 1622.193359,261.875061 
	C1623.383301,261.552704 1624.800659,260.302277 1625.208862,259.157928 
	C1627.298218,253.301331 1629.487305,247.432205 1630.907837,241.394836 
	C1634.094849,227.850479 1636.892456,214.213364 1639.749878,200.593277 
	C1640.511719,196.961929 1640.585815,192.736557 1645.438354,192.384583 
	C1647.862549,192.208755 1650.384155,193.416031 1652.865723,193.980606 
	C1654.431152,194.336746 1656.055908,195.098999 1657.563110,194.918594 
	C1662.262695,194.356049 1663.116699,196.903778 1663.029175,200.753311 
	C1662.911743,205.916595 1662.849854,211.090637 1663.057373,216.248260 
	C1663.178589,219.258286 1663.871826,222.245300 1663.656738,224.897507 
	C1662.771118,228.685913 1661.564575,232.432724 1661.066895,236.271439 
	C1660.034180,244.237122 1659.377441,252.251572 1658.552368,260.382294 
	C1665.962158,259.363556 1673.685425,265.863953 1672.967896,271.947052 
	C1672.437622,276.442322 1665.227539,283.858124 1660.277588,284.999420 
	C1650.849854,287.173157 1648.617554,290.438873 1647.837524,299.949738 
	C1647.396484,305.325775 1645.002563,310.512207 1644.048828,315.883575 
	C1643.023804,321.656830 1642.717529,327.554504 1641.980103,333.382996 
	C1641.409424,337.892517 1640.456421,342.361511 1640.061401,346.882416 
	C1639.825806,349.578888 1640.989136,352.494507 1640.386719,355.042847 
	C1638.914917,361.268860 1640.207031,367.251373 1640.527588,373.375031 
	C1640.647095,375.659271 1636.587402,377.941620 1635.033691,380.578552 
	C1631.469604,386.627472 1624.620483,388.294128 1619.658813,392.497314 
	C1615.083496,396.373413 1608.940674,392.690460 1609.047485,386.705414 
	C1609.090698,384.287384 1609.889404,381.884369 1609.948608,379.464844 
	C1610.098999,373.303711 1610.350708,367.117889 1609.985474,360.976196 
	C1608.594971,337.588470 1612.507446,315.060211 1620.404785,293.119995 
	C1620.676880,292.363983 1620.904541,291.564117 1620.972778,290.769226 
	C1621.069092,289.647278 1620.997070,288.510864 1620.997070,286.255127 
	C1612.518433,287.814087 1604.363403,288.531250 1596.715698,290.891968 
	C1583.201660,295.063507 1569.986328,300.207916 1556.681519,305.043091 
	C1555.629272,305.425537 1554.320312,306.410919 1554.030640,307.383972 
	C1550.259521,320.055725 1546.049438,332.643860 1543.221680,345.532135 
	C1541.458374,353.569031 1545.967529,359.140442 1554.460815,361.909393 
	C1557.734985,362.976807 1559.052002,364.550354 1556.937744,367.321533 
	C1553.589722,371.709686 1549.925781,375.876526 1546.155640,379.912933 
	C1544.644165,381.531433 1542.526367,382.601593 1540.625244,383.829559 
	C1539.845825,384.332977 1538.827881,385.035156 1538.058228,384.892487 
	C1533.486938,384.045410 1528.953003,382.993256 1524.416992,381.963989 
	C1523.814453,381.827332 1522.907837,381.560150 1522.754639,381.133514 
	C1520.125977,373.810669 1512.638062,368.305145 1515.695190,358.737488 
	C1516.996094,354.666229 1514.620361,349.559143 1515.165283,345.074615 
	C1515.976807,338.395874 1517.885498,331.849457 1519.346924,325.251068 
	C1520.284302,321.019073 1521.257080,316.794952 1522.621826,310.765747 
	C1518.163208,312.766266 1515.059692,314.158783 1511.611816,315.756287 
z"/>
<path fill="#FFD369" opacity="1.000000" stroke="none" 
	d="
M1517.765381,250.542435 
	C1515.019897,262.978485 1507.386353,271.047424 1498.173218,278.879242 
	C1490.269775,285.597870 1482.437012,292.237152 1473.688965,297.768890 
	C1466.571655,302.269440 1459.681152,307.360779 1452.057373,310.779144 
	C1437.384399,317.358429 1422.224609,322.843781 1407.343506,328.969818 
	C1398.533691,332.596527 1389.664917,336.180634 1381.210083,340.536072 
	C1374.864624,343.804779 1368.335327,344.797546 1361.453003,345.021454 
	C1358.389893,345.121063 1356.052979,344.237671 1356.004517,340.830475 
	C1355.948486,336.888641 1355.846558,332.852478 1356.592041,329.018219 
	C1357.531494,324.187286 1362.006714,324.914551 1365.655518,323.772308 
	C1374.241333,321.084534 1382.534912,317.431854 1390.870605,313.985535 
	C1398.587402,310.795135 1406.306641,307.578857 1413.846680,303.999054 
	C1432.406250,295.187531 1451.218506,286.800751 1469.159302,276.854492 
	C1475.023560,273.603394 1479.111694,266.441071 1482.886597,260.367950 
	C1485.585815,256.025452 1483.505615,253.505142 1478.533813,252.970337 
	C1477.440552,252.852737 1476.387695,252.365326 1475.314575,252.054047 
	C1468.370728,250.039917 1461.531738,247.370987 1454.447021,246.235992 
	C1449.389160,245.425705 1443.987671,246.538132 1438.764282,247.047134 
	C1433.902466,247.520874 1429.034180,248.124603 1424.236816,249.030670 
	C1407.290649,252.231094 1390.108643,254.630539 1374.019775,261.177917 
	C1369.778564,262.903839 1364.129395,265.699280 1362.930420,269.277893 
	C1361.256958,274.273285 1358.192871,278.334778 1356.406372,283.093201 
	C1351.490601,296.186829 1347.271606,309.470184 1344.933594,323.304352 
	C1344.706055,324.650940 1343.377319,325.794586 1343.073242,327.147766 
	C1339.569092,342.750671 1334.205078,358.096771 1336.330566,374.852295 
	C1342.987305,374.067383 1349.683960,373.277740 1356.283569,372.499573 
	C1356.973633,375.103790 1357.391479,376.953400 1357.955688,378.757233 
	C1359.483398,383.640717 1356.614258,388.510864 1351.532715,390.229187 
	C1346.893799,391.797852 1342.031006,393.184906 1337.914795,395.708801 
	C1331.207764,399.821381 1323.814697,399.062378 1316.653687,399.907227 
	C1312.672241,400.376984 1310.012207,397.652863 1309.155029,394.143585 
	C1307.737549,388.341553 1306.396851,382.398193 1306.123047,376.463684 
	C1305.462891,362.153900 1308.760742,348.518677 1313.296631,334.927124 
	C1317.984009,320.882050 1321.169312,306.335327 1324.993774,292.003235 
	C1325.393677,290.504639 1325.672241,288.973633 1325.806763,288.364746 
	C1322.458862,287.544739 1317.812988,287.667297 1316.980835,285.946136 
	C1315.128540,282.114288 1313.592285,276.863312 1314.774048,273.079895 
	C1317.755371,263.534973 1325.719360,257.183136 1333.035156,250.908493 
	C1335.966309,248.394516 1340.818481,248.191910 1344.706787,246.703781 
	C1349.324707,244.936478 1353.737427,242.569031 1358.438232,241.098877 
	C1363.936523,239.379349 1369.739746,238.637482 1375.244873,236.935745 
	C1380.869629,235.197098 1386.227539,232.603210 1391.836548,230.802002 
	C1394.234375,230.032013 1397.028809,230.592636 1399.543579,230.070328 
	C1403.956665,229.153763 1408.266968,227.750412 1412.670166,226.776077 
	C1416.138916,226.008453 1419.665039,225.385239 1423.198853,225.060242 
	C1426.124268,224.791214 1428.741333,224.974899 1431.346313,222.574554 
	C1432.914185,221.129837 1436.390259,221.600372 1439.020142,221.493729 
	C1446.149536,221.204727 1453.285034,221.065201 1460.418213,220.875137 
	C1460.745728,220.866409 1461.134277,221.076233 1461.395752,220.960739 
	C1471.664307,216.421829 1480.446167,222.253265 1489.642822,225.040909 
	C1492.724121,225.974915 1495.617676,227.744263 1498.742676,228.275589 
	C1506.824097,229.649643 1510.772217,236.235382 1515.603149,241.469101 
	C1517.407349,243.423752 1517.225342,247.211792 1517.765381,250.542435 
z"/>
<path fill="#FFD369" opacity="1.000000" stroke="none" 
	d="
M1683.517822,377.990662 
	C1678.051270,374.798981 1672.740723,371.945648 1668.077515,368.270996 
	C1666.164795,366.763702 1665.186646,363.590057 1664.589233,360.989319 
	C1663.141113,354.683411 1662.144287,348.272736 1661.004883,341.897278 
	C1658.383301,327.228302 1664.196167,314.730194 1672.873413,304.026764 
	C1681.954834,292.824646 1692.774048,283.031158 1702.837036,272.625244 
	C1703.530884,271.907745 1704.567505,271.345123 1704.912598,270.494537 
	C1707.863770,263.222168 1714.829590,260.381042 1720.430176,255.938751 
	C1732.401489,246.443085 1746.343506,239.756531 1757.630859,229.224976 
	C1760.588867,226.465027 1765.549438,225.916061 1769.489990,224.130356 
	C1776.847168,220.796326 1784.167114,217.375549 1791.436401,213.854065 
	C1802.969116,208.267319 1814.799561,207.602463 1826.958130,211.394913 
	C1827.103882,211.440414 1827.220581,211.707932 1827.337646,211.698914 
	C1837.429810,210.920746 1840.875122,218.278290 1844.191284,225.620193 
	C1846.302246,230.293518 1848.645264,234.989426 1849.772461,239.928894 
	C1850.385132,242.613708 1848.813965,245.869110 1847.976685,248.795288 
	C1846.780640,252.974991 1844.571411,257.022095 1844.211426,261.246521 
	C1843.683105,267.447815 1840.299194,272.023285 1837.545532,277.110596 
	C1834.725586,282.320251 1832.659302,287.933472 1829.940552,293.203644 
	C1827.956055,297.050781 1825.428345,300.615997 1823.182251,304.330841 
	C1822.095093,306.128998 1820.564819,307.869263 1820.150269,309.829254 
	C1817.791016,320.982819 1808.952759,327.488678 1802.059448,335.321777 
	C1793.973633,344.509918 1782.941528,349.808838 1772.640503,355.873352 
	C1766.066406,359.743713 1758.549805,362.012329 1751.458252,365.005219 
	C1750.270752,365.506439 1748.849976,365.772308 1747.954468,366.599091 
	C1740.081299,373.868958 1729.609741,375.019836 1720.078247,376.455414 
	C1708.940918,378.132843 1697.459839,381.351990 1685.926758,378.026306 
	C1685.311279,377.848755 1684.600952,378.000031 1683.517822,377.990662 
M1797.941895,301.441071 
	C1803.359253,292.092804 1808.983154,282.855377 1814.090820,273.340912 
	C1816.101562,269.595490 1816.527100,265.013275 1818.448364,261.202271 
	C1821.032227,256.077087 1819.670166,253.165817 1813.768799,253.050247 
	C1812.238892,253.020294 1810.697266,253.588104 1809.005981,253.910919 
	C1805.441895,249.776825 1801.949463,245.725830 1798.408325,241.618286 
	C1797.132568,242.193436 1795.069946,243.050491 1793.071411,244.036957 
	C1784.043701,248.492981 1775.019897,252.957550 1766.025879,257.481171 
	C1763.141113,258.932129 1760.116455,260.260223 1757.560547,262.182709 
	C1747.025757,270.106995 1736.312744,277.850464 1726.335938,286.439545 
	C1720.416504,291.535675 1716.044434,298.385620 1710.444336,303.907135 
	C1702.585205,311.656128 1697.277222,320.713470 1694.309692,331.250519 
	C1692.472290,337.774445 1697.615112,346.882965 1704.138184,347.929718 
	C1712.742188,349.310425 1721.314575,350.577057 1730.090088,348.075562 
	C1749.701782,342.485168 1767.853882,334.340729 1782.613525,319.838440 
	C1784.597656,317.888916 1785.844971,314.946045 1788.107300,313.574158 
	C1792.735962,310.767242 1795.428711,306.744049 1797.941895,301.441071 
z"/>
<path  stroke="none" 
	d="
M534.584351,234.445358 
	C534.898315,233.985657 535.366699,233.743927 535.835083,233.502197 
	C535.768066,233.956497 535.701050,234.410797 535.358398,234.968567 
	C534.968018,234.935791 534.853333,234.799561 534.584351,234.445358 
z"/>
<path  stroke="none" 
	d="
M1797.692383,301.723663 
	C1795.428711,306.744049 1792.735962,310.767242 1788.107300,313.574158 
	C1785.844971,314.946045 1784.597656,317.888916 1782.613525,319.838440 
	C1767.853882,334.340729 1749.701782,342.485168 1730.090088,348.075562 
	C1721.314575,350.577057 1712.742188,349.310425 1704.138184,347.929718 
	C1697.615112,346.882965 1692.472290,337.774445 1694.309692,331.250519 
	C1697.277222,320.713470 1702.585205,311.656128 1710.444336,303.907135 
	C1716.044434,298.385620 1720.416504,291.535675 1726.335938,286.439545 
	C1736.312744,277.850464 1747.025757,270.106995 1757.560547,262.182709 
	C1760.116455,260.260223 1763.141113,258.932129 1766.025879,257.481171 
	C1775.019897,252.957550 1784.043701,248.492981 1793.071411,244.036957 
	C1795.069946,243.050491 1797.132568,242.193436 1798.408325,241.618286 
	C1801.949463,245.725830 1805.441895,249.776825 1809.005981,253.910919 
	C1810.697266,253.588104 1812.238892,253.020294 1813.768799,253.050247 
	C1819.670166,253.165817 1821.032227,256.077087 1818.448364,261.202271 
	C1816.527100,265.013275 1816.101562,269.595490 1814.090820,273.340912 
	C1808.983154,282.855377 1803.359253,292.092804 1797.692383,301.723663 
z"/>
</svg>